<svg xmlns="http://www.w3.org/2000/svg" xmlns:xlink="http://www.w3.org/1999/xlink" width="171" zoomAndPan="magnify" viewBox="0 0 129.12 37.92" height="40" preserveAspectRatio="xMidYMid meet" version="1.0"><defs><g/><clipPath id="a8f9601ede"><path d="M 1.488281 5.359375 L 20 5.359375 L 20 26.960938 L 1.488281 26.960938 Z M 1.488281 5.359375 " clip-rule="nonzero"/></clipPath><clipPath id="713eed58c2"><path d="M 27 18 L 89 18 L 89 29.886719 L 27 29.886719 Z M 27 18 " clip-rule="nonzero"/></clipPath><clipPath id="0683c3caf3"><path d="M 0.414062 3 L 5 3 L 5 9 L 0.414062 9 Z M 0.414062 3 " clip-rule="nonzero"/></clipPath><clipPath id="3188276476"><rect x="0" width="62" y="0" height="12"/></clipPath></defs><g clip-path="url(#a8f9601ede)"><path fill="#ffffff" d="M 18.539062 8.769531 C 18.640625 8.898438 18.703125 9.054688 18.703125 9.222656 C 18.710938 9.792969 17.984375 10.183594 17.378906 9.925781 C 16.972656 9.753906 16.714844 9.382812 16.40625 9.109375 C 15.765625 8.53125 14.789062 8.03125 13.800781 7.945312 C 13.765625 7.9375 13.738281 7.914062 13.738281 7.882812 C 13.738281 7.855469 13.761719 7.828125 13.800781 7.824219 C 14.789062 7.726562 15.765625 7.015625 16.40625 6.4375 C 16.714844 6.160156 16.972656 5.789062 17.378906 5.621094 C 17.984375 5.363281 18.703125 5.75 18.703125 6.324219 C 18.703125 6.492188 18.644531 6.648438 18.539062 6.773438 C 19.1875 6.785156 19.710938 7.226562 19.710938 7.773438 C 19.710938 8.320312 19.1875 8.761719 18.539062 8.769531 Z M 13.617188 11.894531 L 13.734375 11.894531 L 13.734375 9.648438 L 12.710938 9.648438 L 12.710938 7.402344 L 10.960938 7.402344 L 10.960938 9.648438 L 9.9375 9.648438 L 9.9375 11.894531 L 10.050781 11.894531 C 7.886719 12.636719 6.324219 14.691406 6.324219 17.113281 C 6.324219 17.40625 6.351562 17.695312 6.394531 17.976562 C 5.972656 16.988281 5.183594 16.089844 3.851562 15.703125 C 3.847656 15.703125 3.84375 15.703125 3.84375 15.703125 C 3.839844 15.703125 3.839844 15.707031 3.839844 15.714844 C 3.839844 15.71875 3.839844 15.722656 3.839844 15.726562 C 3.9375 15.882812 4.320312 16.625 4.019531 18.355469 C 3.839844 19.375 3.777344 20.46875 4.125 21.34375 L 4.019531 21.210938 C 3.890625 21.03125 3.710938 20.886719 3.492188 20.792969 C 2.847656 20.511719 2.09375 20.808594 1.828125 21.453125 C 1.566406 22.074219 1.855469 22.800781 2.476562 23.082031 C 2.695312 23.183594 2.933594 23.214844 3.160156 23.1875 L 4.746094 23.074219 C 4.761719 23.210938 4.8125 23.335938 4.894531 23.445312 L 3.65625 24.445312 C 3.476562 24.574219 3.332031 24.753906 3.238281 24.972656 C 2.957031 25.617188 3.253906 26.371094 3.898438 26.636719 C 4.523438 26.898438 5.246094 26.609375 5.527344 25.988281 C 5.628906 25.769531 5.660156 25.53125 5.636719 25.304688 L 5.519531 23.71875 C 5.65625 23.703125 5.785156 23.652344 5.890625 23.570312 L 6.894531 24.808594 C 7.019531 24.988281 7.199219 25.132812 7.417969 25.226562 C 7.882812 25.425781 8.398438 25.328125 8.757812 25.023438 L 14.867188 25.023438 L 16.949219 19.183594 C 17.007812 19.035156 17.0625 18.882812 17.109375 18.726562 C 17.269531 18.214844 17.351562 17.675781 17.351562 17.113281 C 17.34375 14.695312 15.789062 12.636719 13.617188 11.894531 Z M 13.617188 11.894531 " fill-opacity="1" fill-rule="nonzero"/><path fill="#ffffff" d="M 13.800781 11.894531 L 13.800781 9.585938 L 12.777344 9.585938 L 12.777344 7.769531 C 12.789062 7.703125 12.800781 7.636719 12.800781 7.566406 C 12.800781 7.5 12.789062 7.433594 12.777344 7.367188 L 12.777344 7.34375 L 12.769531 7.34375 C 12.667969 6.921875 12.289062 6.609375 11.839844 6.609375 C 11.386719 6.609375 11.007812 6.921875 10.910156 7.34375 L 10.902344 7.34375 L 10.902344 7.367188 C 10.886719 7.433594 10.878906 7.5 10.878906 7.566406 C 10.878906 7.636719 10.886719 7.703125 10.902344 7.769531 L 10.902344 9.589844 L 9.878906 9.589844 L 9.878906 11.894531 C 7.710938 12.710938 6.269531 14.785156 6.269531 17.113281 C 6.269531 17.277344 6.277344 17.445312 6.292969 17.609375 C 5.875 16.8125 5.144531 16.007812 3.875 15.644531 C 3.84375 15.636719 3.808594 15.648438 3.789062 15.675781 C 3.765625 15.699219 3.765625 15.734375 3.785156 15.765625 C 3.863281 15.890625 4.257812 16.625 3.953125 18.351562 C 3.757812 19.457031 3.757812 20.34375 3.953125 21.046875 C 3.832031 20.917969 3.683594 20.8125 3.515625 20.742188 C 3.183594 20.597656 2.820312 20.589844 2.484375 20.726562 C 2.15625 20.859375 1.898438 21.113281 1.761719 21.441406 C 1.488281 22.089844 1.796875 22.855469 2.441406 23.148438 C 2.617188 23.230469 2.808594 23.269531 2.996094 23.269531 C 3.050781 23.269531 3.101562 23.265625 3.15625 23.261719 L 4.683594 23.148438 C 4.691406 23.203125 4.707031 23.253906 4.726562 23.304688 C 4.746094 23.355469 4.769531 23.402344 4.800781 23.445312 L 3.609375 24.40625 C 3.417969 24.546875 3.265625 24.738281 3.171875 24.957031 C 3.023438 25.289062 3.019531 25.652344 3.15625 25.988281 C 3.289062 26.320312 3.539062 26.574219 3.871094 26.710938 C 4.03125 26.777344 4.199219 26.808594 4.363281 26.808594 C 4.867188 26.808594 5.359375 26.515625 5.578125 26.027344 C 5.683594 25.800781 5.71875 25.550781 5.691406 25.3125 L 5.578125 23.78125 C 5.683594 23.765625 5.785156 23.726562 5.871094 23.667969 L 6.832031 24.855469 C 6.972656 25.046875 7.160156 25.203125 7.382812 25.296875 C 7.554688 25.367188 7.738281 25.40625 7.917969 25.40625 C 7.980469 25.40625 8.039062 25.402344 8.105469 25.394531 L 11.835938 26.25 L 16.964844 25.9375 L 14.917969 25.054688 L 17 19.21875 C 17.058594 19.066406 17.117188 18.910156 17.164062 18.753906 C 17.328125 18.226562 17.410156 17.675781 17.410156 17.121094 C 17.410156 14.785156 15.964844 12.710938 13.800781 11.894531 Z M 11.019531 8.074219 C 11.195312 8.34375 11.492188 8.527344 11.835938 8.527344 C 12.175781 8.527344 12.480469 8.347656 12.644531 8.074219 L 12.644531 9.585938 L 11.019531 9.585938 Z M 10.902344 9.714844 L 13.675781 9.714844 L 13.675781 11.832031 L 10.003906 11.832031 L 10.003906 9.714844 Z M 6.980469 19.441406 C 7.277344 19.5625 7.503906 19.792969 7.625 20.09375 C 7.667969 20.199219 7.695312 20.308594 7.707031 20.421875 L 7.707031 20.429688 C 7.707031 20.445312 7.710938 20.46875 7.710938 20.488281 C 7.710938 20.5 7.710938 20.511719 7.710938 20.523438 C 7.710938 20.566406 7.710938 20.609375 7.707031 20.652344 C 7.707031 20.65625 7.707031 20.660156 7.707031 20.660156 C 7.707031 20.675781 7.703125 20.699219 7.699219 20.714844 C 7.695312 20.730469 7.695312 20.75 7.691406 20.765625 C 7.6875 20.785156 7.6875 20.796875 7.683594 20.8125 C 7.671875 20.84375 7.664062 20.871094 7.65625 20.902344 C 7.652344 20.910156 7.652344 20.925781 7.648438 20.933594 C 7.636719 20.964844 7.625 20.996094 7.609375 21.03125 C 7.523438 21.230469 7.382812 21.402344 7.207031 21.53125 L 6.019531 22.488281 C 5.945312 22.414062 5.859375 22.347656 5.757812 22.300781 C 5.65625 22.257812 5.550781 22.238281 5.441406 22.238281 L 5.332031 20.707031 C 5.300781 20.484375 5.339844 20.257812 5.433594 20.054688 C 5.703125 19.46875 6.394531 19.191406 6.980469 19.441406 Z M 11.222656 18.609375 C 11.210938 18.578125 11.191406 18.554688 11.15625 18.550781 C 11.128906 18.542969 11.09375 18.558594 11.074219 18.585938 C 11 18.71875 10.53125 19.40625 8.863281 19.933594 C 8.691406 19.988281 8.53125 20.046875 8.375 20.101562 L 7.980469 18.992188 C 7.933594 18.878906 7.890625 18.761719 7.855469 18.648438 C 7.738281 18.253906 7.671875 17.839844 7.671875 17.425781 C 7.671875 16.261719 8.164062 15.144531 9.023438 14.359375 C 9.265625 14.140625 9.894531 14.246094 10.273438 14.308594 C 10.347656 14.324219 10.414062 14.335938 10.476562 14.339844 C 10.789062 14.382812 11.09375 14.4375 11.386719 14.488281 C 12.480469 14.683594 13.511719 14.871094 14.675781 14.386719 C 15.515625 15.171875 15.996094 16.277344 15.996094 17.425781 C 15.996094 17.839844 15.9375 18.253906 15.8125 18.648438 C 15.78125 18.761719 15.738281 18.878906 15.691406 18.996094 L 14.113281 23.429688 L 9.5625 23.429688 L 9.375 22.90625 L 9.347656 22.914062 C 10.589844 22.03125 11.617188 20.535156 11.222656 18.609375 Z M 8.902344 20.054688 C 10.34375 19.597656 10.914062 19.03125 11.113281 18.757812 C 11.042969 19.1875 10.664062 20.539062 8.722656 21.550781 C 7.925781 21.96875 7.328125 22.414062 6.886719 22.832031 L 6.210938 22.878906 C 6.195312 22.773438 6.15625 22.671875 6.09375 22.585938 L 7.285156 21.625 C 7.476562 21.484375 7.628906 21.296875 7.722656 21.074219 C 7.742188 21.039062 7.753906 21 7.765625 20.960938 C 7.769531 20.953125 7.777344 20.945312 7.777344 20.933594 C 7.785156 20.898438 7.792969 20.867188 7.800781 20.835938 C 7.804688 20.816406 7.808594 20.804688 7.808594 20.789062 C 7.8125 20.765625 7.816406 20.75 7.816406 20.726562 C 7.824219 20.699219 7.828125 20.667969 7.828125 20.644531 C 7.828125 20.628906 7.832031 20.613281 7.832031 20.601562 C 7.832031 20.570312 7.832031 20.539062 7.832031 20.511719 C 7.835938 20.492188 7.835938 20.476562 7.835938 20.460938 C 8.15625 20.3125 8.503906 20.183594 8.902344 20.054688 Z M 4.078125 18.371094 C 4.339844 16.882812 4.101562 16.113281 3.953125 15.808594 C 4.304688 16.070312 5.324219 17.03125 5.324219 19.21875 C 5.324219 19.472656 5.332031 19.71875 5.351562 19.953125 C 5.34375 19.96875 5.332031 19.984375 5.324219 20.007812 C 5.222656 20.234375 5.183594 20.484375 5.210938 20.722656 L 5.324219 22.25 C 5.273438 22.257812 5.222656 22.273438 5.171875 22.292969 C 5.117188 22.3125 5.070312 22.335938 5.027344 22.367188 L 4.175781 21.3125 C 3.890625 20.582031 3.855469 19.625 4.078125 18.371094 Z M 4.742188 22.699219 C 4.695312 22.804688 4.675781 22.910156 4.679688 23.019531 L 3.148438 23.128906 C 2.925781 23.15625 2.699219 23.121094 2.496094 23.027344 C 1.910156 22.761719 1.636719 22.066406 1.882812 21.476562 C 2.003906 21.183594 2.234375 20.957031 2.535156 20.835938 C 2.835938 20.714844 3.164062 20.71875 3.46875 20.847656 C 3.667969 20.933594 3.839844 21.074219 3.96875 21.25 L 4.929688 22.4375 C 4.855469 22.511719 4.789062 22.601562 4.742188 22.699219 Z M 5.464844 25.964844 C 5.199219 26.546875 4.503906 26.824219 3.917969 26.578125 C 3.621094 26.453125 3.394531 26.226562 3.273438 25.925781 C 3.152344 25.625 3.15625 25.296875 3.285156 24.992188 C 3.371094 24.792969 3.511719 24.621094 3.6875 24.492188 L 4.875 23.53125 C 4.949219 23.605469 5.039062 23.671875 5.136719 23.71875 C 5.234375 23.761719 5.339844 23.78125 5.441406 23.78125 C 5.445312 23.78125 5.445312 23.78125 5.453125 23.78125 L 5.5625 25.3125 C 5.597656 25.535156 5.558594 25.761719 5.464844 25.964844 Z M 5.191406 23.601562 C 5.035156 23.535156 4.910156 23.40625 4.847656 23.25 C 4.78125 23.085938 4.785156 22.910156 4.855469 22.753906 C 4.921875 22.59375 5.050781 22.472656 5.207031 22.40625 C 5.285156 22.378906 5.367188 22.359375 5.445312 22.359375 C 5.53125 22.359375 5.621094 22.378906 5.703125 22.417969 C 6.03125 22.558594 6.179688 22.941406 6.039062 23.265625 C 5.902344 23.59375 5.519531 23.742188 5.191406 23.601562 Z M 8.367188 25.183594 C 8.066406 25.304688 7.738281 25.300781 7.433594 25.171875 C 7.234375 25.085938 7.0625 24.945312 6.933594 24.769531 L 5.972656 23.578125 C 6.046875 23.503906 6.113281 23.417969 6.160156 23.316406 C 6.203125 23.214844 6.222656 23.109375 6.222656 23 L 7.753906 22.890625 C 7.976562 22.863281 8.203125 22.898438 8.40625 22.992188 C 8.992188 23.257812 9.269531 23.953125 9.019531 24.539062 C 8.898438 24.835938 8.667969 25.066406 8.367188 25.183594 Z M 17.042969 18.707031 C 16.996094 18.859375 16.941406 19.007812 16.878906 19.164062 L 14.816406 24.957031 L 8.90625 24.957031 C 9.003906 24.851562 9.082031 24.726562 9.140625 24.589844 C 9.339844 24.113281 9.226562 23.578125 8.898438 23.207031 C 9.019531 23.132812 9.144531 23.054688 9.269531 22.976562 L 9.476562 23.554688 L 14.203125 23.554688 L 15.808594 19.039062 C 15.855469 18.917969 15.898438 18.800781 15.9375 18.679688 C 16.0625 18.277344 16.125 17.847656 16.125 17.421875 C 16.125 16.226562 15.617188 15.074219 14.734375 14.261719 L 14.703125 14.238281 L 14.667969 14.253906 C 13.523438 14.746094 12.5 14.5625 11.417969 14.367188 C 11.121094 14.3125 10.816406 14.257812 10.5 14.210938 C 10.445312 14.203125 10.375 14.195312 10.304688 14.183594 C 9.878906 14.109375 9.234375 14.003906 8.949219 14.265625 C 8.066406 15.078125 7.558594 16.230469 7.558594 17.425781 C 7.558594 17.855469 7.621094 18.28125 7.746094 18.683594 C 7.785156 18.804688 7.828125 18.925781 7.875 19.039062 L 8.269531 20.148438 C 8.117188 20.207031 7.972656 20.265625 7.832031 20.332031 C 7.8125 20.234375 7.789062 20.140625 7.753906 20.050781 C 7.621094 19.722656 7.371094 19.464844 7.042969 19.328125 C 6.972656 19.300781 6.90625 19.28125 6.835938 19.265625 L 6.820312 19.214844 C 6.769531 18.894531 6.671875 18.449219 6.46875 17.976562 C 6.421875 17.691406 6.402344 17.40625 6.402344 17.117188 C 6.402344 14.792969 7.878906 12.722656 10.074219 11.964844 L 13.617188 11.964844 C 15.8125 12.71875 17.289062 14.789062 17.289062 17.117188 C 17.28125 17.652344 17.199219 18.191406 17.042969 18.707031 Z M 19.773438 7.773438 C 19.773438 7.230469 19.285156 6.773438 18.65625 6.714844 C 18.730469 6.597656 18.773438 6.460938 18.773438 6.324219 C 18.773438 6.0625 18.632812 5.820312 18.390625 5.65625 C 18.082031 5.453125 17.6875 5.417969 17.351562 5.558594 C 17.054688 5.683594 16.832031 5.914062 16.625 6.136719 C 16.539062 6.226562 16.453125 6.308594 16.367188 6.390625 C 15.734375 6.960938 14.773438 7.667969 13.800781 7.761719 C 13.734375 7.769531 13.675781 7.820312 13.675781 7.882812 C 13.675781 7.949219 13.730469 8.003906 13.800781 8.007812 C 14.6875 8.089844 15.671875 8.527344 16.367188 9.15625 C 16.457031 9.230469 16.539062 9.320312 16.625 9.410156 C 16.835938 9.632812 17.054688 9.859375 17.351562 9.984375 C 17.488281 10.042969 17.632812 10.070312 17.78125 10.070312 C 17.992188 10.070312 18.207031 10.011719 18.386719 9.890625 C 18.628906 9.730469 18.769531 9.488281 18.769531 9.226562 C 18.769531 9.089844 18.730469 8.953125 18.652344 8.835938 C 19.28125 8.769531 19.773438 8.3125 19.773438 7.773438 Z M 18.535156 8.707031 L 18.402344 8.707031 L 18.488281 8.808594 C 18.589844 8.933594 18.640625 9.074219 18.640625 9.21875 C 18.640625 9.4375 18.523438 9.640625 18.3125 9.78125 C 18.042969 9.960938 17.695312 9.992188 17.398438 9.867188 C 17.128906 9.75 16.914062 9.535156 16.710938 9.320312 C 16.625 9.230469 16.535156 9.140625 16.445312 9.0625 C 15.734375 8.421875 14.730469 7.96875 13.828125 7.882812 C 14.824219 7.777344 15.800781 7.066406 16.445312 6.484375 C 16.535156 6.402344 16.625 6.308594 16.710938 6.226562 C 16.914062 6.011719 17.121094 5.792969 17.398438 5.679688 C 17.699219 5.554688 18.046875 5.585938 18.3125 5.765625 C 18.523438 5.902344 18.640625 6.105469 18.640625 6.328125 C 18.640625 6.472656 18.589844 6.617188 18.488281 6.738281 L 18.402344 6.839844 L 18.535156 6.839844 C 19.148438 6.847656 19.648438 7.265625 19.648438 7.777344 C 19.648438 8.289062 19.148438 8.699219 18.535156 8.707031 Z M 18.109375 6.148438 L 18.082031 6.203125 L 18.058594 6.257812 C 18.03125 6.246094 17.453125 5.980469 16.972656 6.644531 L 16.871094 6.570312 C 17.414062 5.820312 18.105469 6.144531 18.109375 6.148438 Z M 14.289062 21.023438 L 14.167969 20.980469 C 14.78125 19.328125 15.328125 17.578125 14.714844 15.9375 L 14.832031 15.894531 C 15.460938 17.574219 14.90625 19.351562 14.289062 21.023438 Z M 5.707031 21.117188 L 5.578125 21.109375 C 5.65625 20.113281 6.117188 19.878906 6.136719 19.871094 L 6.164062 19.925781 L 6.1875 19.980469 C 6.183594 19.984375 5.769531 20.199219 5.707031 21.117188 Z M 3.550781 22.621094 L 3.546875 22.75 C 2.546875 22.714844 2.296875 22.261719 2.289062 22.242188 L 2.34375 22.210938 L 2.398438 22.183594 C 2.402344 22.1875 2.632812 22.589844 3.550781 22.621094 Z M 5.195312 25.28125 L 5.3125 25.332031 C 4.898438 26.242188 4.382812 26.300781 4.359375 26.300781 L 4.347656 26.179688 C 4.351562 26.179688 4.816406 26.117188 5.195312 25.28125 Z M 8.78125 24.070312 L 8.722656 24.089844 L 8.664062 24.105469 C 8.664062 24.101562 8.527344 23.652344 7.644531 23.414062 L 7.675781 23.289062 C 8.636719 23.550781 8.777344 24.050781 8.78125 24.070312 Z M 8.78125 24.070312 " fill-opacity="1" fill-rule="nonzero"/></g><g fill="#ffffff" fill-opacity="1"><g transform="translate(26.489673, 18.523419)"><g><path d="M 0.265625 -12.328125 L 1.78125 -12.328125 L 4.53125 -1.8125 L 4.625 -1.8125 L 8.046875 -12.328125 L 9.4375 -12.328125 L 12.84375 -1.8125 L 12.9375 -1.8125 L 15.703125 -12.328125 L 17.21875 -12.328125 L 13.90625 0 L 11.90625 0 L 8.78125 -9.671875 L 8.6875 -9.671875 L 5.5625 0 L 3.5625 0 Z M 0.265625 -12.328125 "/></g></g></g><g fill="#ffffff" fill-opacity="1"><g transform="translate(44.845394, 18.523419)"><g><path d="M 1.375 -12.328125 L 2.90625 -12.328125 L 2.90625 0 L 1.375 0 Z M 1.375 -12.328125 "/></g></g></g><g fill="#ffffff" fill-opacity="1"><g transform="translate(50.002068, 18.523419)"><g><path d="M 1.328125 -12.328125 L 3.03125 -12.328125 L 9.625 -2.4375 L 9.703125 -2.4375 L 9.703125 -12.328125 L 11.203125 -12.328125 L 11.203125 0 L 9.46875 0 L 2.890625 -9.75 L 2.8125 -9.75 L 2.8125 0 L 1.328125 0 Z M 1.328125 -12.328125 "/></g></g></g><g fill="#ffffff" fill-opacity="1"><g transform="translate(63.394951, 18.523419)"><g><path d="M 1.375 -12.328125 L 2.90625 -12.328125 L 2.90625 0 L 1.375 0 Z M 1.375 -12.328125 "/></g></g></g><g fill="#ffffff" fill-opacity="1"><g transform="translate(68.551625, 18.523419)"><g><path d="M 1.9375 -8.703125 C 2.644531 -9.003906 3 -9.460938 3 -10.078125 C 3 -10.359375 2.945312 -10.535156 2.84375 -10.609375 C 2.738281 -10.679688 2.59375 -10.71875 2.40625 -10.71875 C 2.101562 -10.71875 1.878906 -10.800781 1.734375 -10.96875 C 1.597656 -11.144531 1.53125 -11.34375 1.53125 -11.5625 C 1.53125 -11.875 1.625 -12.117188 1.8125 -12.296875 C 2 -12.484375 2.269531 -12.578125 2.625 -12.578125 C 3.4375 -12.578125 3.84375 -12.140625 3.84375 -11.265625 L 3.84375 -10.640625 C 3.84375 -9.929688 3.664062 -9.367188 3.3125 -8.953125 C 2.957031 -8.535156 2.5 -8.238281 1.9375 -8.0625 Z M 1.9375 -8.703125 "/></g></g></g><g fill="#ffffff" fill-opacity="1"><g transform="translate(74.113075, 18.523419)"><g><path d="M 5.390625 0.140625 C 4.441406 0.140625 3.628906 -0.0507812 2.953125 -0.4375 C 2.273438 -0.832031 1.765625 -1.34375 1.421875 -1.96875 C 1.085938 -2.59375 0.921875 -3.242188 0.921875 -3.921875 L 0.921875 -4.015625 L 2.59375 -4.015625 L 2.59375 -3.921875 C 2.59375 -3.515625 2.6875 -3.101562 2.875 -2.6875 C 3.070312 -2.28125 3.378906 -1.9375 3.796875 -1.65625 C 4.222656 -1.382812 4.765625 -1.25 5.421875 -1.25 C 6.191406 -1.25 6.828125 -1.445312 7.328125 -1.84375 C 7.835938 -2.25 8.09375 -2.789062 8.09375 -3.46875 C 8.09375 -4.03125 7.90625 -4.476562 7.53125 -4.8125 C 7.164062 -5.144531 6.695312 -5.375 6.125 -5.5 L 4.328125 -5.828125 C 2.265625 -6.285156 1.234375 -7.375 1.234375 -9.09375 C 1.234375 -9.789062 1.398438 -10.40625 1.734375 -10.9375 C 2.078125 -11.46875 2.550781 -11.875 3.15625 -12.15625 C 3.757812 -12.445312 4.460938 -12.59375 5.265625 -12.59375 C 6.171875 -12.59375 6.945312 -12.410156 7.59375 -12.046875 C 8.238281 -11.679688 8.722656 -11.207031 9.046875 -10.625 C 9.378906 -10.039062 9.546875 -9.441406 9.546875 -8.828125 L 9.546875 -8.75 L 7.875 -8.75 L 7.875 -8.796875 C 7.875 -9.148438 7.785156 -9.507812 7.609375 -9.875 C 7.441406 -10.25 7.160156 -10.570312 6.765625 -10.84375 C 6.378906 -11.113281 5.863281 -11.25 5.21875 -11.25 C 4.476562 -11.25 3.882812 -11.039062 3.4375 -10.625 C 3 -10.21875 2.78125 -9.710938 2.78125 -9.109375 C 2.78125 -8.585938 2.945312 -8.160156 3.28125 -7.828125 C 3.625 -7.503906 4.09375 -7.285156 4.6875 -7.171875 L 6.296875 -6.84375 C 8.566406 -6.382812 9.703125 -5.273438 9.703125 -3.515625 C 9.703125 -2.804688 9.519531 -2.175781 9.15625 -1.625 C 8.800781 -1.070312 8.296875 -0.640625 7.640625 -0.328125 C 6.984375 -0.015625 6.234375 0.140625 5.390625 0.140625 Z M 5.390625 0.140625 "/></g></g></g><g clip-path="url(#713eed58c2)"><g transform="matrix(1, 0, 0, 1, 27, 18)"><g clip-path="url(#3188276476)"><g clip-path="url(#0683c3caf3)"><g fill="#ffffff" fill-opacity="1"><g transform="translate(0.508355, 8.709823)"><g><path d="M 2.171875 0.0625 C 1.785156 0.0625 1.457031 -0.015625 1.1875 -0.171875 C 0.914062 -0.335938 0.710938 -0.546875 0.578125 -0.796875 C 0.441406 -1.046875 0.375 -1.304688 0.375 -1.578125 L 0.375 -1.609375 L 1.046875 -1.609375 L 1.046875 -1.578125 C 1.046875 -1.410156 1.082031 -1.242188 1.15625 -1.078125 C 1.238281 -0.910156 1.363281 -0.769531 1.53125 -0.65625 C 1.695312 -0.550781 1.914062 -0.5 2.1875 -0.5 C 2.488281 -0.5 2.738281 -0.578125 2.9375 -0.734375 C 3.144531 -0.898438 3.25 -1.117188 3.25 -1.390625 C 3.25 -1.617188 3.175781 -1.800781 3.03125 -1.9375 C 2.882812 -2.070312 2.695312 -2.160156 2.46875 -2.203125 L 1.734375 -2.34375 C 0.910156 -2.53125 0.5 -2.96875 0.5 -3.65625 C 0.5 -3.9375 0.566406 -4.179688 0.703125 -4.390625 C 0.835938 -4.609375 1.023438 -4.773438 1.265625 -4.890625 C 1.515625 -5.003906 1.796875 -5.0625 2.109375 -5.0625 C 2.472656 -5.0625 2.785156 -4.988281 3.046875 -4.84375 C 3.304688 -4.695312 3.503906 -4.503906 3.640625 -4.265625 C 3.773438 -4.035156 3.84375 -3.796875 3.84375 -3.546875 L 3.84375 -3.515625 L 3.15625 -3.515625 L 3.15625 -3.546875 C 3.15625 -3.679688 3.117188 -3.820312 3.046875 -3.96875 C 2.984375 -4.125 2.875 -4.253906 2.71875 -4.359375 C 2.5625 -4.460938 2.351562 -4.515625 2.09375 -4.515625 C 1.800781 -4.515625 1.566406 -4.429688 1.390625 -4.265625 C 1.210938 -4.109375 1.125 -3.90625 1.125 -3.65625 C 1.125 -3.445312 1.191406 -3.273438 1.328125 -3.140625 C 1.460938 -3.015625 1.644531 -2.925781 1.875 -2.875 L 2.53125 -2.75 C 3.445312 -2.570312 3.90625 -2.128906 3.90625 -1.421875 C 3.90625 -1.128906 3.832031 -0.867188 3.6875 -0.640625 C 3.539062 -0.421875 3.332031 -0.25 3.0625 -0.125 C 2.800781 0 2.503906 0.0625 2.171875 0.0625 Z M 2.171875 0.0625 "/></g></g></g></g><g fill="#ffffff" fill-opacity="1"><g transform="translate(10.411999, 8.709823)"><g><path d="M 2.625 0.046875 C 2.15625 0.046875 1.753906 -0.0625 1.421875 -0.28125 C 1.085938 -0.5 0.832031 -0.800781 0.65625 -1.1875 C 0.476562 -1.570312 0.390625 -2.007812 0.390625 -2.5 C 0.390625 -2.988281 0.476562 -3.425781 0.65625 -3.8125 C 0.832031 -4.207031 1.085938 -4.515625 1.421875 -4.734375 C 1.753906 -4.953125 2.15625 -5.0625 2.625 -5.0625 C 3.175781 -5.0625 3.632812 -4.90625 4 -4.59375 C 4.363281 -4.28125 4.609375 -3.851562 4.734375 -3.3125 L 4.125 -3.3125 C 4.03125 -3.675781 3.847656 -3.96875 3.578125 -4.1875 C 3.316406 -4.40625 3 -4.515625 2.625 -4.515625 C 2.113281 -4.515625 1.71875 -4.332031 1.4375 -3.96875 C 1.164062 -3.601562 1.03125 -3.117188 1.03125 -2.515625 C 1.03125 -1.898438 1.164062 -1.410156 1.4375 -1.046875 C 1.71875 -0.691406 2.113281 -0.515625 2.625 -0.515625 C 2.976562 -0.515625 3.28125 -0.609375 3.53125 -0.796875 C 3.789062 -0.984375 3.972656 -1.238281 4.078125 -1.5625 L 4.6875 -1.5625 C 4.550781 -1.070312 4.304688 -0.679688 3.953125 -0.390625 C 3.597656 -0.0976562 3.15625 0.046875 2.625 0.046875 Z M 2.625 0.046875 "/></g></g></g><g fill="#ffffff" fill-opacity="1"><g transform="translate(21.115589, 8.709823)"><g><path d="M 1.140625 -4.40625 L 1.140625 -2.78125 L 3.296875 -2.78125 L 3.296875 -2.28125 L 1.140625 -2.28125 L 1.140625 -0.546875 L 3.578125 -0.546875 L 3.578125 0 L 0.53125 0 L 0.53125 -4.953125 L 3.578125 -4.953125 L 3.578125 -4.40625 Z M 1.140625 -4.40625 "/></g></g></g><g fill="#ffffff" fill-opacity="1"><g transform="translate(30.806861, 8.709823)"><g><path d="M 0.53125 -4.953125 L 1.21875 -4.953125 L 3.875 -0.984375 L 3.90625 -0.984375 L 3.90625 -4.953125 L 4.5 -4.953125 L 4.5 0 L 3.8125 0 L 1.15625 -3.921875 L 1.125 -3.921875 L 1.125 0 L 0.53125 0 Z M 0.53125 -4.953125 "/></g></g></g><g fill="#ffffff" fill-opacity="1"><g transform="translate(41.503367, 8.709823)"><g><path d="M 3.84375 -4.40625 L 2.390625 -4.40625 L 2.390625 0 L 1.78125 0 L 1.78125 -4.40625 L 0.3125 -4.40625 L 0.3125 -4.953125 L 3.84375 -4.953125 Z M 3.84375 -4.40625 "/></g></g></g><g fill="#ffffff" fill-opacity="1"><g transform="translate(51.336224, 8.709823)"><g><path d="M 2.171875 0.0625 C 1.785156 0.0625 1.457031 -0.015625 1.1875 -0.171875 C 0.914062 -0.335938 0.710938 -0.546875 0.578125 -0.796875 C 0.441406 -1.046875 0.375 -1.304688 0.375 -1.578125 L 0.375 -1.609375 L 1.046875 -1.609375 L 1.046875 -1.578125 C 1.046875 -1.410156 1.082031 -1.242188 1.15625 -1.078125 C 1.238281 -0.910156 1.363281 -0.769531 1.53125 -0.65625 C 1.695312 -0.550781 1.914062 -0.5 2.1875 -0.5 C 2.488281 -0.5 2.738281 -0.578125 2.9375 -0.734375 C 3.144531 -0.898438 3.25 -1.117188 3.25 -1.390625 C 3.25 -1.617188 3.175781 -1.800781 3.03125 -1.9375 C 2.882812 -2.070312 2.695312 -2.160156 2.46875 -2.203125 L 1.734375 -2.34375 C 0.910156 -2.53125 0.5 -2.96875 0.5 -3.65625 C 0.5 -3.9375 0.566406 -4.179688 0.703125 -4.390625 C 0.835938 -4.609375 1.023438 -4.773438 1.265625 -4.890625 C 1.515625 -5.003906 1.796875 -5.0625 2.109375 -5.0625 C 2.472656 -5.0625 2.785156 -4.988281 3.046875 -4.84375 C 3.304688 -4.695312 3.503906 -4.503906 3.640625 -4.265625 C 3.773438 -4.035156 3.84375 -3.796875 3.84375 -3.546875 L 3.84375 -3.515625 L 3.15625 -3.515625 L 3.15625 -3.546875 C 3.15625 -3.679688 3.117188 -3.820312 3.046875 -3.96875 C 2.984375 -4.125 2.875 -4.253906 2.71875 -4.359375 C 2.5625 -4.460938 2.351562 -4.515625 2.09375 -4.515625 C 1.800781 -4.515625 1.566406 -4.429688 1.390625 -4.265625 C 1.210938 -4.109375 1.125 -3.90625 1.125 -3.65625 C 1.125 -3.445312 1.191406 -3.273438 1.328125 -3.140625 C 1.460938 -3.015625 1.644531 -2.925781 1.875 -2.875 L 2.53125 -2.75 C 3.445312 -2.570312 3.90625 -2.128906 3.90625 -1.421875 C 3.90625 -1.128906 3.832031 -0.867188 3.6875 -0.640625 C 3.539062 -0.421875 3.332031 -0.25 3.0625 -0.125 C 2.800781 0 2.503906 0.0625 2.171875 0.0625 Z M 2.171875 0.0625 "/></g></g></g></g></g></g></svg>