<svg xmlns="http://www.w3.org/2000/svg" xmlns:xlink="http://www.w3.org/1999/xlink" width="171" zoomAndPan="magnify" viewBox="0 0 129.12 37.92" height="40" preserveAspectRatio="xMidYMid meet" version="1.0"><defs><g/><clipPath id="fc1357e226"><path d="M 0.746094 5.359375 L 19 5.359375 L 19 26.960938 L 0.746094 26.960938 Z M 0.746094 5.359375 " clip-rule="nonzero"/></clipPath><clipPath id="6e47cbe794"><path d="M 0.746094 5.359375 L 19.367188 5.359375 L 19.367188 26.960938 L 0.746094 26.960938 Z M 0.746094 5.359375 " clip-rule="nonzero"/></clipPath><clipPath id="728883c670"><path d="M 26 18 L 88 18 L 88 29.886719 L 26 29.886719 Z M 26 18 " clip-rule="nonzero"/></clipPath><clipPath id="f4e5ff548f"><rect x="0" width="62" y="0" height="12"/></clipPath></defs><g clip-path="url(#fc1357e226)"><path fill="#3c50e0" d="M 17.792969 8.769531 C 17.894531 8.898438 17.960938 9.054688 17.960938 9.222656 C 17.964844 9.792969 17.238281 10.183594 16.632812 9.925781 C 16.230469 9.753906 15.96875 9.382812 15.660156 9.109375 C 15.023438 8.53125 14.046875 8.03125 13.054688 7.945312 C 13.023438 7.9375 12.992188 7.914062 12.992188 7.882812 C 12.992188 7.855469 13.019531 7.828125 13.054688 7.824219 C 14.046875 7.726562 15.023438 7.015625 15.660156 6.4375 C 15.96875 6.160156 16.230469 5.789062 16.632812 5.621094 C 17.238281 5.363281 17.960938 5.75 17.960938 6.324219 C 17.960938 6.492188 17.902344 6.648438 17.792969 6.773438 C 18.441406 6.785156 18.964844 7.226562 18.964844 7.773438 C 18.964844 8.320312 18.441406 8.761719 17.792969 8.769531 Z M 12.871094 11.894531 L 12.988281 11.894531 L 12.988281 9.648438 L 11.964844 9.648438 L 11.964844 7.402344 L 10.214844 7.402344 L 10.214844 9.648438 L 9.191406 9.648438 L 9.191406 11.894531 L 9.308594 11.894531 C 7.140625 12.636719 5.582031 14.691406 5.582031 17.113281 C 5.582031 17.40625 5.605469 17.695312 5.648438 17.976562 C 5.226562 16.988281 4.4375 16.089844 3.105469 15.703125 C 3.101562 15.703125 3.097656 15.703125 3.097656 15.703125 C 3.09375 15.703125 3.09375 15.707031 3.09375 15.714844 C 3.09375 15.71875 3.09375 15.722656 3.09375 15.726562 C 3.191406 15.882812 3.578125 16.625 3.273438 18.355469 C 3.09375 19.375 3.03125 20.46875 3.378906 21.34375 L 3.273438 21.210938 C 3.144531 21.03125 2.964844 20.886719 2.75 20.792969 C 2.101562 20.511719 1.351562 20.808594 1.082031 21.453125 C 0.820312 22.074219 1.113281 22.800781 1.730469 23.082031 C 1.953125 23.183594 2.191406 23.214844 2.417969 23.1875 L 4.003906 23.074219 C 4.015625 23.210938 4.066406 23.335938 4.148438 23.445312 L 2.910156 24.445312 C 2.730469 24.574219 2.585938 24.753906 2.492188 24.972656 C 2.210938 25.617188 2.511719 26.371094 3.152344 26.636719 C 3.777344 26.898438 4.5 26.609375 4.785156 25.988281 C 4.886719 25.769531 4.914062 25.53125 4.890625 25.304688 L 4.773438 23.71875 C 4.910156 23.703125 5.039062 23.652344 5.144531 23.570312 L 6.148438 24.808594 C 6.277344 24.988281 6.453125 25.132812 6.671875 25.226562 C 7.136719 25.425781 7.652344 25.328125 8.011719 25.023438 L 14.121094 25.023438 L 16.203125 19.183594 C 16.261719 19.035156 16.316406 18.882812 16.367188 18.726562 C 16.523438 18.214844 16.609375 17.675781 16.609375 17.113281 C 16.601562 14.695312 15.042969 12.636719 12.871094 11.894531 Z M 12.871094 11.894531 " fill-opacity="1" fill-rule="nonzero"/></g><g clip-path="url(#6e47cbe794)"><path fill="#1c274c" d="M 13.054688 11.894531 L 13.054688 9.585938 L 12.03125 9.585938 L 12.03125 7.769531 C 12.046875 7.703125 12.054688 7.636719 12.054688 7.566406 C 12.054688 7.5 12.046875 7.433594 12.03125 7.367188 L 12.03125 7.34375 L 12.023438 7.34375 C 11.921875 6.921875 11.542969 6.609375 11.09375 6.609375 C 10.640625 6.609375 10.261719 6.921875 10.164062 7.34375 L 10.15625 7.34375 L 10.15625 7.367188 C 10.144531 7.433594 10.136719 7.5 10.136719 7.566406 C 10.136719 7.636719 10.144531 7.703125 10.15625 7.769531 L 10.15625 9.589844 L 9.132812 9.589844 L 9.132812 11.894531 C 6.964844 12.710938 5.523438 14.785156 5.523438 17.113281 C 5.523438 17.277344 5.535156 17.445312 5.546875 17.609375 C 5.128906 16.8125 4.398438 16.007812 3.128906 15.644531 C 3.097656 15.636719 3.066406 15.648438 3.042969 15.675781 C 3.023438 15.699219 3.023438 15.734375 3.039062 15.765625 C 3.121094 15.890625 3.511719 16.625 3.210938 18.351562 C 3.011719 19.457031 3.011719 20.34375 3.210938 21.046875 C 3.085938 20.917969 2.9375 20.8125 2.769531 20.742188 C 2.4375 20.597656 2.074219 20.589844 1.738281 20.726562 C 1.410156 20.859375 1.15625 21.113281 1.019531 21.441406 C 0.746094 22.089844 1.050781 22.855469 1.695312 23.148438 C 1.871094 23.230469 2.0625 23.269531 2.25 23.269531 C 2.304688 23.269531 2.355469 23.265625 2.414062 23.261719 L 3.9375 23.148438 C 3.949219 23.203125 3.960938 23.253906 3.980469 23.304688 C 4.003906 23.355469 4.023438 23.402344 4.054688 23.445312 L 2.863281 24.40625 C 2.671875 24.546875 2.519531 24.738281 2.425781 24.957031 C 2.28125 25.289062 2.277344 25.652344 2.414062 25.988281 C 2.542969 26.320312 2.796875 26.574219 3.125 26.710938 C 3.285156 26.777344 3.453125 26.808594 3.617188 26.808594 C 4.121094 26.808594 4.613281 26.515625 4.835938 26.027344 C 4.9375 25.800781 4.976562 25.550781 4.945312 25.3125 L 4.835938 23.78125 C 4.9375 23.765625 5.039062 23.726562 5.125 23.667969 L 6.089844 24.855469 C 6.230469 25.046875 6.417969 25.203125 6.636719 25.296875 C 6.808594 25.367188 6.992188 25.40625 7.171875 25.40625 C 7.234375 25.40625 7.296875 25.402344 7.359375 25.394531 L 11.089844 26.25 L 16.21875 25.9375 L 14.171875 25.054688 L 16.253906 19.21875 C 16.3125 19.066406 16.375 18.910156 16.421875 18.753906 C 16.582031 18.226562 16.664062 17.675781 16.664062 17.121094 C 16.664062 14.785156 15.21875 12.710938 13.054688 11.894531 Z M 10.277344 8.074219 C 10.449219 8.34375 10.75 8.527344 11.089844 8.527344 C 11.429688 8.527344 11.734375 8.347656 11.902344 8.074219 L 11.902344 9.585938 L 10.277344 9.585938 Z M 10.15625 9.714844 L 12.933594 9.714844 L 12.933594 11.832031 L 9.261719 11.832031 L 9.261719 9.714844 Z M 6.238281 19.441406 C 6.53125 19.5625 6.757812 19.792969 6.882812 20.09375 C 6.925781 20.199219 6.949219 20.308594 6.960938 20.421875 L 6.960938 20.429688 C 6.960938 20.445312 6.964844 20.46875 6.964844 20.488281 C 6.964844 20.5 6.964844 20.511719 6.964844 20.523438 C 6.964844 20.566406 6.964844 20.609375 6.960938 20.652344 C 6.960938 20.65625 6.960938 20.660156 6.960938 20.660156 C 6.960938 20.675781 6.957031 20.699219 6.953125 20.714844 C 6.949219 20.730469 6.949219 20.75 6.945312 20.765625 C 6.941406 20.785156 6.941406 20.796875 6.9375 20.8125 C 6.929688 20.84375 6.917969 20.871094 6.910156 20.902344 C 6.90625 20.910156 6.90625 20.925781 6.902344 20.933594 C 6.890625 20.964844 6.882812 20.996094 6.863281 21.03125 C 6.777344 21.230469 6.636719 21.402344 6.464844 21.53125 L 5.273438 22.488281 C 5.199219 22.414062 5.117188 22.347656 5.011719 22.300781 C 4.910156 22.257812 4.804688 22.238281 4.699219 22.238281 L 4.585938 20.707031 C 4.558594 20.484375 4.59375 20.257812 4.6875 20.054688 C 4.957031 19.46875 5.648438 19.191406 6.238281 19.441406 Z M 10.476562 18.609375 C 10.46875 18.578125 10.445312 18.554688 10.414062 18.550781 C 10.382812 18.542969 10.347656 18.558594 10.332031 18.585938 C 10.253906 18.71875 9.785156 19.40625 8.117188 19.933594 C 7.949219 19.988281 7.785156 20.046875 7.632812 20.101562 L 7.234375 18.992188 C 7.1875 18.878906 7.144531 18.761719 7.113281 18.648438 C 6.992188 18.253906 6.929688 17.839844 6.929688 17.425781 C 6.929688 16.261719 7.417969 15.144531 8.28125 14.359375 C 8.519531 14.140625 9.148438 14.246094 9.53125 14.308594 C 9.601562 14.324219 9.671875 14.335938 9.730469 14.339844 C 10.046875 14.382812 10.347656 14.4375 10.640625 14.488281 C 11.734375 14.683594 12.765625 14.871094 13.929688 14.386719 C 14.769531 15.171875 15.253906 16.277344 15.253906 17.425781 C 15.253906 17.839844 15.191406 18.253906 15.070312 18.648438 C 15.035156 18.761719 14.992188 18.878906 14.945312 18.996094 L 13.367188 23.429688 L 8.816406 23.429688 L 8.628906 22.90625 L 8.605469 22.914062 C 9.84375 22.03125 10.871094 20.535156 10.476562 18.609375 Z M 8.15625 20.054688 C 9.597656 19.597656 10.167969 19.03125 10.371094 18.757812 C 10.296875 19.1875 9.917969 20.539062 7.976562 21.550781 C 7.179688 21.96875 6.582031 22.414062 6.144531 22.832031 L 5.464844 22.878906 C 5.449219 22.773438 5.410156 22.671875 5.351562 22.585938 L 6.539062 21.625 C 6.730469 21.484375 6.886719 21.296875 6.980469 21.074219 C 6.996094 21.039062 7.007812 21 7.023438 20.960938 C 7.027344 20.953125 7.03125 20.945312 7.03125 20.933594 C 7.039062 20.898438 7.046875 20.867188 7.054688 20.835938 C 7.058594 20.816406 7.066406 20.804688 7.066406 20.789062 C 7.070312 20.765625 7.074219 20.75 7.074219 20.726562 C 7.078125 20.699219 7.082031 20.667969 7.082031 20.644531 C 7.082031 20.628906 7.085938 20.613281 7.085938 20.601562 C 7.085938 20.570312 7.085938 20.539062 7.085938 20.511719 C 7.089844 20.492188 7.089844 20.476562 7.089844 20.460938 C 7.410156 20.3125 7.761719 20.183594 8.15625 20.054688 Z M 3.332031 18.371094 C 3.59375 16.882812 3.355469 16.113281 3.210938 15.808594 C 3.558594 16.070312 4.578125 17.03125 4.578125 19.21875 C 4.578125 19.472656 4.585938 19.71875 4.609375 19.953125 C 4.601562 19.96875 4.585938 19.984375 4.578125 20.007812 C 4.476562 20.234375 4.4375 20.484375 4.46875 20.722656 L 4.578125 22.25 C 4.527344 22.257812 4.476562 22.273438 4.425781 22.292969 C 4.375 22.3125 4.328125 22.335938 4.285156 22.367188 L 3.429688 21.3125 C 3.144531 20.582031 3.113281 19.625 3.332031 18.371094 Z M 4 22.699219 C 3.953125 22.804688 3.929688 22.910156 3.933594 23.019531 L 2.402344 23.128906 C 2.183594 23.15625 1.957031 23.121094 1.75 23.027344 C 1.167969 22.761719 0.890625 22.066406 1.136719 21.476562 C 1.261719 21.183594 1.492188 20.957031 1.789062 20.835938 C 2.09375 20.714844 2.421875 20.71875 2.722656 20.847656 C 2.925781 20.933594 3.09375 21.074219 3.222656 21.25 L 4.1875 22.4375 C 4.109375 22.511719 4.046875 22.601562 4 22.699219 Z M 4.71875 25.964844 C 4.453125 26.546875 3.761719 26.824219 3.171875 26.578125 C 2.878906 26.453125 2.652344 26.226562 2.527344 25.925781 C 2.40625 25.625 2.414062 25.296875 2.539062 24.992188 C 2.625 24.792969 2.765625 24.621094 2.941406 24.492188 L 4.128906 23.53125 C 4.203125 23.605469 4.292969 23.671875 4.390625 23.71875 C 4.488281 23.761719 4.59375 23.78125 4.699219 23.78125 C 4.703125 23.78125 4.703125 23.78125 4.707031 23.78125 L 4.816406 25.3125 C 4.851562 25.535156 4.8125 25.761719 4.71875 25.964844 Z M 4.445312 23.601562 C 4.289062 23.535156 4.164062 23.40625 4.101562 23.25 C 4.035156 23.085938 4.042969 22.910156 4.109375 22.753906 C 4.175781 22.597656 4.304688 22.472656 4.464844 22.40625 C 4.539062 22.378906 4.621094 22.359375 4.703125 22.359375 C 4.789062 22.359375 4.878906 22.378906 4.957031 22.417969 C 5.285156 22.558594 5.4375 22.941406 5.296875 23.265625 C 5.160156 23.59375 4.773438 23.742188 4.445312 23.601562 Z M 7.625 25.183594 C 7.320312 25.304688 6.992188 25.300781 6.6875 25.171875 C 6.488281 25.085938 6.320312 24.945312 6.191406 24.769531 L 5.226562 23.578125 C 5.304688 23.503906 5.367188 23.417969 5.414062 23.316406 C 5.457031 23.214844 5.476562 23.109375 5.476562 23 L 7.007812 22.890625 C 7.230469 22.863281 7.457031 22.898438 7.660156 22.992188 C 8.246094 23.257812 8.523438 23.953125 8.277344 24.539062 C 8.152344 24.835938 7.921875 25.066406 7.625 25.183594 Z M 16.296875 18.707031 C 16.25 18.859375 16.195312 19.007812 16.136719 19.164062 L 14.070312 24.957031 L 8.160156 24.957031 C 8.257812 24.851562 8.335938 24.726562 8.394531 24.589844 C 8.59375 24.113281 8.480469 23.578125 8.152344 23.207031 C 8.277344 23.132812 8.398438 23.054688 8.523438 22.976562 L 8.730469 23.554688 L 13.457031 23.554688 L 15.066406 19.039062 C 15.113281 18.917969 15.152344 18.800781 15.191406 18.679688 C 15.316406 18.277344 15.378906 17.847656 15.378906 17.421875 C 15.378906 16.226562 14.871094 15.074219 13.988281 14.261719 L 13.960938 14.238281 L 13.921875 14.253906 C 12.777344 14.746094 11.753906 14.5625 10.671875 14.367188 C 10.378906 14.3125 10.070312 14.257812 9.753906 14.210938 C 9.699219 14.203125 9.632812 14.195312 9.558594 14.183594 C 9.132812 14.109375 8.488281 14.003906 8.203125 14.265625 C 7.320312 15.078125 6.8125 16.230469 6.8125 17.425781 C 6.8125 17.855469 6.878906 18.28125 7 18.683594 C 7.039062 18.804688 7.082031 18.925781 7.128906 19.039062 L 7.523438 20.148438 C 7.371094 20.207031 7.226562 20.265625 7.085938 20.332031 C 7.070312 20.234375 7.042969 20.140625 7.007812 20.050781 C 6.878906 19.722656 6.625 19.464844 6.296875 19.328125 C 6.230469 19.300781 6.160156 19.28125 6.09375 19.265625 L 6.074219 19.214844 C 6.023438 18.894531 5.925781 18.449219 5.726562 17.976562 C 5.679688 17.691406 5.65625 17.40625 5.65625 17.117188 C 5.65625 14.792969 7.132812 12.722656 9.328125 11.964844 L 12.871094 11.964844 C 15.070312 12.71875 16.542969 14.789062 16.542969 17.117188 C 16.535156 17.652344 16.453125 18.191406 16.296875 18.707031 Z M 19.03125 7.773438 C 19.03125 7.230469 18.539062 6.773438 17.914062 6.714844 C 17.984375 6.597656 18.027344 6.460938 18.027344 6.324219 C 18.027344 6.0625 17.886719 5.820312 17.644531 5.65625 C 17.335938 5.453125 16.941406 5.417969 16.609375 5.558594 C 16.308594 5.683594 16.089844 5.914062 15.878906 6.136719 C 15.792969 6.226562 15.707031 6.308594 15.625 6.390625 C 14.988281 6.960938 14.027344 7.667969 13.054688 7.761719 C 12.988281 7.769531 12.933594 7.820312 12.933594 7.882812 C 12.933594 7.949219 12.984375 8.003906 13.054688 8.007812 C 13.941406 8.089844 14.929688 8.527344 15.625 9.15625 C 15.710938 9.230469 15.792969 9.320312 15.878906 9.410156 C 16.09375 9.632812 16.308594 9.859375 16.609375 9.984375 C 16.746094 10.042969 16.890625 10.070312 17.035156 10.070312 C 17.246094 10.070312 17.460938 10.011719 17.640625 9.890625 C 17.882812 9.730469 18.023438 9.488281 18.023438 9.226562 C 18.023438 9.089844 17.984375 8.953125 17.910156 8.835938 C 18.535156 8.769531 19.03125 8.3125 19.03125 7.773438 Z M 17.789062 8.707031 L 17.65625 8.707031 L 17.742188 8.808594 C 17.84375 8.933594 17.894531 9.074219 17.894531 9.21875 C 17.894531 9.4375 17.777344 9.640625 17.566406 9.78125 C 17.300781 9.960938 16.949219 9.992188 16.65625 9.867188 C 16.382812 9.75 16.167969 9.535156 15.964844 9.320312 C 15.878906 9.230469 15.789062 9.140625 15.699219 9.0625 C 14.988281 8.421875 13.984375 7.96875 13.082031 7.882812 C 14.078125 7.777344 15.054688 7.066406 15.699219 6.484375 C 15.789062 6.402344 15.878906 6.308594 15.964844 6.226562 C 16.167969 6.011719 16.378906 5.792969 16.65625 5.679688 C 16.953125 5.554688 17.304688 5.585938 17.566406 5.765625 C 17.777344 5.902344 17.894531 6.105469 17.894531 6.328125 C 17.894531 6.472656 17.84375 6.617188 17.742188 6.738281 L 17.65625 6.839844 L 17.789062 6.839844 C 18.402344 6.847656 18.902344 7.265625 18.902344 7.777344 C 18.902344 8.289062 18.402344 8.699219 17.789062 8.707031 Z M 17.363281 6.148438 L 17.335938 6.203125 L 17.3125 6.257812 C 17.285156 6.246094 16.707031 5.980469 16.230469 6.644531 L 16.125 6.570312 C 16.667969 5.820312 17.359375 6.144531 17.363281 6.148438 Z M 13.542969 21.023438 L 13.421875 20.980469 C 14.035156 19.328125 14.582031 17.578125 13.96875 15.9375 L 14.089844 15.894531 C 14.714844 17.574219 14.160156 19.351562 13.542969 21.023438 Z M 4.960938 21.117188 L 4.835938 21.109375 C 4.910156 20.113281 5.371094 19.878906 5.394531 19.871094 L 5.417969 19.925781 L 5.445312 19.980469 C 5.441406 19.984375 5.027344 20.199219 4.960938 21.117188 Z M 2.804688 22.621094 L 2.800781 22.75 C 1.800781 22.714844 1.550781 22.261719 1.542969 22.242188 L 1.597656 22.210938 L 1.652344 22.183594 C 1.65625 22.1875 1.886719 22.589844 2.804688 22.621094 Z M 4.449219 25.28125 L 4.566406 25.332031 C 4.152344 26.242188 3.636719 26.300781 3.613281 26.300781 L 3.601562 26.179688 C 3.605469 26.179688 4.070312 26.117188 4.449219 25.28125 Z M 8.035156 24.070312 L 7.976562 24.089844 L 7.917969 24.105469 C 7.917969 24.101562 7.78125 23.652344 6.898438 23.414062 L 6.933594 23.289062 C 7.890625 23.550781 8.03125 24.050781 8.035156 24.070312 Z M 8.035156 24.070312 " fill-opacity="1" fill-rule="nonzero"/></g><g fill="#1c274c" fill-opacity="1"><g transform="translate(25.74475, 18.523419)"><g><path d="M 0.265625 -12.328125 L 1.78125 -12.328125 L 4.53125 -1.8125 L 4.625 -1.8125 L 8.046875 -12.328125 L 9.4375 -12.328125 L 12.84375 -1.8125 L 12.9375 -1.8125 L 15.703125 -12.328125 L 17.21875 -12.328125 L 13.90625 0 L 11.90625 0 L 8.78125 -9.671875 L 8.6875 -9.671875 L 5.5625 0 L 3.5625 0 Z M 0.265625 -12.328125 "/></g></g></g><g fill="#1c274c" fill-opacity="1"><g transform="translate(44.100471, 18.523419)"><g><path d="M 1.375 -12.328125 L 2.90625 -12.328125 L 2.90625 0 L 1.375 0 Z M 1.375 -12.328125 "/></g></g></g><g fill="#1c274c" fill-opacity="1"><g transform="translate(49.257145, 18.523419)"><g><path d="M 1.328125 -12.328125 L 3.03125 -12.328125 L 9.625 -2.4375 L 9.703125 -2.4375 L 9.703125 -12.328125 L 11.203125 -12.328125 L 11.203125 0 L 9.46875 0 L 2.890625 -9.75 L 2.8125 -9.75 L 2.8125 0 L 1.328125 0 Z M 1.328125 -12.328125 "/></g></g></g><g fill="#1c274c" fill-opacity="1"><g transform="translate(62.650028, 18.523419)"><g><path d="M 1.375 -12.328125 L 2.90625 -12.328125 L 2.90625 0 L 1.375 0 Z M 1.375 -12.328125 "/></g></g></g><g fill="#1c274c" fill-opacity="1"><g transform="translate(67.806702, 18.523419)"><g><path d="M 1.9375 -8.703125 C 2.644531 -9.003906 3 -9.460938 3 -10.078125 C 3 -10.359375 2.945312 -10.535156 2.84375 -10.609375 C 2.738281 -10.679688 2.59375 -10.71875 2.40625 -10.71875 C 2.101562 -10.71875 1.878906 -10.800781 1.734375 -10.96875 C 1.597656 -11.144531 1.53125 -11.34375 1.53125 -11.5625 C 1.53125 -11.875 1.625 -12.117188 1.8125 -12.296875 C 2 -12.484375 2.269531 -12.578125 2.625 -12.578125 C 3.4375 -12.578125 3.84375 -12.140625 3.84375 -11.265625 L 3.84375 -10.640625 C 3.84375 -9.929688 3.664062 -9.367188 3.3125 -8.953125 C 2.957031 -8.535156 2.5 -8.238281 1.9375 -8.0625 Z M 1.9375 -8.703125 "/></g></g></g><g fill="#1c274c" fill-opacity="1"><g transform="translate(73.368152, 18.523419)"><g><path d="M 5.390625 0.140625 C 4.441406 0.140625 3.628906 -0.0507812 2.953125 -0.4375 C 2.273438 -0.832031 1.765625 -1.34375 1.421875 -1.96875 C 1.085938 -2.59375 0.921875 -3.242188 0.921875 -3.921875 L 0.921875 -4.015625 L 2.59375 -4.015625 L 2.59375 -3.921875 C 2.59375 -3.515625 2.6875 -3.101562 2.875 -2.6875 C 3.070312 -2.28125 3.378906 -1.9375 3.796875 -1.65625 C 4.222656 -1.382812 4.765625 -1.25 5.421875 -1.25 C 6.191406 -1.25 6.828125 -1.445312 7.328125 -1.84375 C 7.835938 -2.25 8.09375 -2.789062 8.09375 -3.46875 C 8.09375 -4.03125 7.90625 -4.476562 7.53125 -4.8125 C 7.164062 -5.144531 6.695312 -5.375 6.125 -5.5 L 4.328125 -5.828125 C 2.265625 -6.285156 1.234375 -7.375 1.234375 -9.09375 C 1.234375 -9.789062 1.398438 -10.40625 1.734375 -10.9375 C 2.078125 -11.46875 2.550781 -11.875 3.15625 -12.15625 C 3.757812 -12.445312 4.460938 -12.59375 5.265625 -12.59375 C 6.171875 -12.59375 6.945312 -12.410156 7.59375 -12.046875 C 8.238281 -11.679688 8.722656 -11.207031 9.046875 -10.625 C 9.378906 -10.039062 9.546875 -9.441406 9.546875 -8.828125 L 9.546875 -8.75 L 7.875 -8.75 L 7.875 -8.796875 C 7.875 -9.148438 7.785156 -9.507812 7.609375 -9.875 C 7.441406 -10.25 7.160156 -10.570312 6.765625 -10.84375 C 6.378906 -11.113281 5.863281 -11.25 5.21875 -11.25 C 4.476562 -11.25 3.882812 -11.039062 3.4375 -10.625 C 3 -10.21875 2.78125 -9.710938 2.78125 -9.109375 C 2.78125 -8.585938 2.945312 -8.160156 3.28125 -7.828125 C 3.625 -7.503906 4.09375 -7.285156 4.6875 -7.171875 L 6.296875 -6.84375 C 8.566406 -6.382812 9.703125 -5.273438 9.703125 -3.515625 C 9.703125 -2.804688 9.519531 -2.175781 9.15625 -1.625 C 8.800781 -1.070312 8.296875 -0.640625 7.640625 -0.328125 C 6.984375 -0.015625 6.234375 0.140625 5.390625 0.140625 Z M 5.390625 0.140625 "/></g></g></g><g clip-path="url(#728883c670)"><g transform="matrix(1, 0, 0, 1, 26, 18)"><g clip-path="url(#f4e5ff548f)"><g fill="#1c274c" fill-opacity="1"><g transform="translate(0.763432, 8.709826)"><g><path d="M 2.171875 0.0625 C 1.785156 0.0625 1.457031 -0.015625 1.1875 -0.171875 C 0.914062 -0.335938 0.710938 -0.546875 0.578125 -0.796875 C 0.441406 -1.046875 0.375 -1.304688 0.375 -1.578125 L 0.375 -1.609375 L 1.046875 -1.609375 L 1.046875 -1.578125 C 1.046875 -1.410156 1.082031 -1.242188 1.15625 -1.078125 C 1.238281 -0.910156 1.363281 -0.769531 1.53125 -0.65625 C 1.695312 -0.550781 1.914062 -0.5 2.1875 -0.5 C 2.488281 -0.5 2.738281 -0.578125 2.9375 -0.734375 C 3.144531 -0.898438 3.25 -1.117188 3.25 -1.390625 C 3.25 -1.617188 3.175781 -1.800781 3.03125 -1.9375 C 2.882812 -2.070312 2.695312 -2.160156 2.46875 -2.203125 L 1.734375 -2.34375 C 0.910156 -2.53125 0.5 -2.96875 0.5 -3.65625 C 0.5 -3.9375 0.566406 -4.179688 0.703125 -4.390625 C 0.835938 -4.609375 1.023438 -4.773438 1.265625 -4.890625 C 1.515625 -5.003906 1.796875 -5.0625 2.109375 -5.0625 C 2.472656 -5.0625 2.785156 -4.988281 3.046875 -4.84375 C 3.304688 -4.695312 3.503906 -4.503906 3.640625 -4.265625 C 3.773438 -4.035156 3.84375 -3.796875 3.84375 -3.546875 L 3.84375 -3.515625 L 3.15625 -3.515625 L 3.15625 -3.546875 C 3.15625 -3.679688 3.117188 -3.820312 3.046875 -3.96875 C 2.984375 -4.125 2.875 -4.253906 2.71875 -4.359375 C 2.5625 -4.460938 2.351562 -4.515625 2.09375 -4.515625 C 1.800781 -4.515625 1.566406 -4.429688 1.390625 -4.265625 C 1.210938 -4.109375 1.125 -3.90625 1.125 -3.65625 C 1.125 -3.445312 1.191406 -3.273438 1.328125 -3.140625 C 1.460938 -3.015625 1.644531 -2.925781 1.875 -2.875 L 2.53125 -2.75 C 3.445312 -2.570312 3.90625 -2.128906 3.90625 -1.421875 C 3.90625 -1.128906 3.832031 -0.867188 3.6875 -0.640625 C 3.539062 -0.421875 3.332031 -0.25 3.0625 -0.125 C 2.800781 0 2.503906 0.0625 2.171875 0.0625 Z M 2.171875 0.0625 "/></g></g></g><g fill="#1c274c" fill-opacity="1"><g transform="translate(10.667076, 8.709826)"><g><path d="M 2.625 0.046875 C 2.15625 0.046875 1.753906 -0.0625 1.421875 -0.28125 C 1.085938 -0.5 0.832031 -0.800781 0.65625 -1.1875 C 0.476562 -1.570312 0.390625 -2.007812 0.390625 -2.5 C 0.390625 -2.988281 0.476562 -3.425781 0.65625 -3.8125 C 0.832031 -4.207031 1.085938 -4.515625 1.421875 -4.734375 C 1.753906 -4.953125 2.15625 -5.0625 2.625 -5.0625 C 3.175781 -5.0625 3.632812 -4.90625 4 -4.59375 C 4.363281 -4.28125 4.609375 -3.851562 4.734375 -3.3125 L 4.125 -3.3125 C 4.03125 -3.675781 3.847656 -3.96875 3.578125 -4.1875 C 3.316406 -4.40625 3 -4.515625 2.625 -4.515625 C 2.113281 -4.515625 1.71875 -4.332031 1.4375 -3.96875 C 1.164062 -3.601562 1.03125 -3.117188 1.03125 -2.515625 C 1.03125 -1.898438 1.164062 -1.410156 1.4375 -1.046875 C 1.71875 -0.691406 2.113281 -0.515625 2.625 -0.515625 C 2.976562 -0.515625 3.28125 -0.609375 3.53125 -0.796875 C 3.789062 -0.984375 3.972656 -1.238281 4.078125 -1.5625 L 4.6875 -1.5625 C 4.550781 -1.070312 4.304688 -0.679688 3.953125 -0.390625 C 3.597656 -0.0976562 3.15625 0.046875 2.625 0.046875 Z M 2.625 0.046875 "/></g></g></g><g fill="#1c274c" fill-opacity="1"><g transform="translate(21.370666, 8.709826)"><g><path d="M 1.140625 -4.40625 L 1.140625 -2.78125 L 3.296875 -2.78125 L 3.296875 -2.28125 L 1.140625 -2.28125 L 1.140625 -0.546875 L 3.578125 -0.546875 L 3.578125 0 L 0.53125 0 L 0.53125 -4.953125 L 3.578125 -4.953125 L 3.578125 -4.40625 Z M 1.140625 -4.40625 "/></g></g></g><g fill="#1c274c" fill-opacity="1"><g transform="translate(31.061938, 8.709826)"><g><path d="M 0.53125 -4.953125 L 1.21875 -4.953125 L 3.875 -0.984375 L 3.90625 -0.984375 L 3.90625 -4.953125 L 4.5 -4.953125 L 4.5 0 L 3.8125 0 L 1.15625 -3.921875 L 1.125 -3.921875 L 1.125 0 L 0.53125 0 Z M 0.53125 -4.953125 "/></g></g></g><g fill="#1c274c" fill-opacity="1"><g transform="translate(41.758444, 8.709826)"><g><path d="M 3.84375 -4.40625 L 2.390625 -4.40625 L 2.390625 0 L 1.78125 0 L 1.78125 -4.40625 L 0.3125 -4.40625 L 0.3125 -4.953125 L 3.84375 -4.953125 Z M 3.84375 -4.40625 "/></g></g></g><g fill="#1c274c" fill-opacity="1"><g transform="translate(51.591301, 8.709826)"><g><path d="M 2.171875 0.0625 C 1.785156 0.0625 1.457031 -0.015625 1.1875 -0.171875 C 0.914062 -0.335938 0.710938 -0.546875 0.578125 -0.796875 C 0.441406 -1.046875 0.375 -1.304688 0.375 -1.578125 L 0.375 -1.609375 L 1.046875 -1.609375 L 1.046875 -1.578125 C 1.046875 -1.410156 1.082031 -1.242188 1.15625 -1.078125 C 1.238281 -0.910156 1.363281 -0.769531 1.53125 -0.65625 C 1.695312 -0.550781 1.914062 -0.5 2.1875 -0.5 C 2.488281 -0.5 2.738281 -0.578125 2.9375 -0.734375 C 3.144531 -0.898438 3.25 -1.117188 3.25 -1.390625 C 3.25 -1.617188 3.175781 -1.800781 3.03125 -1.9375 C 2.882812 -2.070312 2.695312 -2.160156 2.46875 -2.203125 L 1.734375 -2.34375 C 0.910156 -2.53125 0.5 -2.96875 0.5 -3.65625 C 0.5 -3.9375 0.566406 -4.179688 0.703125 -4.390625 C 0.835938 -4.609375 1.023438 -4.773438 1.265625 -4.890625 C 1.515625 -5.003906 1.796875 -5.0625 2.109375 -5.0625 C 2.472656 -5.0625 2.785156 -4.988281 3.046875 -4.84375 C 3.304688 -4.695312 3.503906 -4.503906 3.640625 -4.265625 C 3.773438 -4.035156 3.84375 -3.796875 3.84375 -3.546875 L 3.84375 -3.515625 L 3.15625 -3.515625 L 3.15625 -3.546875 C 3.15625 -3.679688 3.117188 -3.820312 3.046875 -3.96875 C 2.984375 -4.125 2.875 -4.253906 2.71875 -4.359375 C 2.5625 -4.460938 2.351562 -4.515625 2.09375 -4.515625 C 1.800781 -4.515625 1.566406 -4.429688 1.390625 -4.265625 C 1.210938 -4.109375 1.125 -3.90625 1.125 -3.65625 C 1.125 -3.445312 1.191406 -3.273438 1.328125 -3.140625 C 1.460938 -3.015625 1.644531 -2.925781 1.875 -2.875 L 2.53125 -2.75 C 3.445312 -2.570312 3.90625 -2.128906 3.90625 -1.421875 C 3.90625 -1.128906 3.832031 -0.867188 3.6875 -0.640625 C 3.539062 -0.421875 3.332031 -0.25 3.0625 -0.125 C 2.800781 0 2.503906 0.0625 2.171875 0.0625 Z M 2.171875 0.0625 "/></g></g></g></g></g></g></svg>