<svg xmlns="http://www.w3.org/2000/svg" xmlns:xlink="http://www.w3.org/1999/xlink" width="171" zoomAndPan="magnify" viewBox="0 0 129.12 37.92" height="40" preserveAspectRatio="xMidYMid meet" version="1.0"><defs><g/><clipPath id="ff6812e5bc"><path d="M 0 5.359375 L 18.625 5.359375 L 18.625 26.960938 L 0 26.960938 Z M 0 5.359375 " clip-rule="nonzero"/></clipPath><clipPath id="35ea3a6a1d"><path d="M 25 18 L 88 18 L 88 29.886719 L 25 29.886719 Z M 25 18 " clip-rule="nonzero"/></clipPath><clipPath id="fdd048e596"><rect x="0" width="63" y="0" height="12"/></clipPath></defs><g clip-path="url(#ff6812e5bc)"><path fill="#efe7dd" d="M 17.050781 8.769531 C 17.152344 8.898438 17.214844 9.054688 17.214844 9.222656 C 17.21875 9.792969 16.496094 10.183594 15.890625 9.925781 C 15.484375 9.753906 15.222656 9.382812 14.917969 9.109375 C 14.277344 8.53125 13.300781 8.03125 12.3125 7.945312 C 12.277344 7.9375 12.246094 7.914062 12.246094 7.882812 C 12.246094 7.855469 12.273438 7.828125 12.3125 7.824219 C 13.300781 7.726562 14.277344 7.015625 14.917969 6.4375 C 15.222656 6.160156 15.484375 5.789062 15.890625 5.621094 C 16.496094 5.363281 17.214844 5.75 17.214844 6.324219 C 17.214844 6.492188 17.15625 6.648438 17.050781 6.773438 C 17.695312 6.785156 18.222656 7.226562 18.222656 7.773438 C 18.222656 8.320312 17.695312 8.761719 17.050781 8.769531 Z M 12.128906 11.894531 L 12.242188 11.894531 L 12.242188 9.648438 L 11.21875 9.648438 L 11.21875 7.402344 L 9.472656 7.402344 L 9.472656 9.648438 L 8.449219 9.648438 L 8.449219 11.894531 L 8.5625 11.894531 C 6.398438 12.636719 4.835938 14.691406 4.835938 17.113281 C 4.835938 17.40625 4.863281 17.695312 4.902344 17.976562 C 4.480469 16.988281 3.691406 16.089844 2.363281 15.703125 C 2.359375 15.703125 2.355469 15.703125 2.355469 15.703125 C 2.351562 15.703125 2.351562 15.707031 2.351562 15.714844 C 2.351562 15.71875 2.351562 15.722656 2.351562 15.726562 C 2.449219 15.882812 2.832031 16.625 2.527344 18.355469 C 2.351562 19.375 2.285156 20.46875 2.636719 21.34375 L 2.527344 21.210938 C 2.402344 21.03125 2.222656 20.886719 2.003906 20.792969 C 1.355469 20.511719 0.605469 20.808594 0.335938 21.453125 C 0.078125 22.074219 0.367188 22.800781 0.984375 23.082031 C 1.207031 23.183594 1.445312 23.214844 1.671875 23.1875 L 3.257812 23.074219 C 3.269531 23.210938 3.320312 23.335938 3.402344 23.445312 L 2.167969 24.445312 C 1.988281 24.574219 1.84375 24.753906 1.75 24.972656 C 1.46875 25.617188 1.765625 26.371094 2.410156 26.636719 C 3.03125 26.898438 3.757812 26.609375 4.039062 25.988281 C 4.140625 25.769531 4.171875 25.53125 4.144531 25.304688 L 4.03125 23.71875 C 4.167969 23.703125 4.292969 23.652344 4.402344 23.570312 L 5.402344 24.808594 C 5.53125 24.988281 5.710938 25.132812 5.925781 25.226562 C 6.390625 25.425781 6.910156 25.328125 7.265625 25.023438 L 13.378906 25.023438 L 15.457031 19.183594 C 15.519531 19.035156 15.574219 18.882812 15.621094 18.726562 C 15.777344 18.214844 15.863281 17.675781 15.863281 17.113281 C 15.855469 14.695312 14.296875 12.636719 12.128906 11.894531 Z M 12.128906 11.894531 " fill-opacity="1" fill-rule="nonzero"/><path fill="#764b36" d="M 12.3125 11.894531 L 12.3125 9.585938 L 11.289062 9.585938 L 11.289062 7.769531 C 11.300781 7.703125 11.308594 7.636719 11.308594 7.566406 C 11.308594 7.5 11.300781 7.433594 11.289062 7.367188 L 11.289062 7.34375 L 11.277344 7.34375 C 11.175781 6.921875 10.796875 6.609375 10.347656 6.609375 C 9.898438 6.609375 9.519531 6.921875 9.421875 7.34375 L 9.410156 7.34375 L 9.410156 7.367188 C 9.398438 7.433594 9.390625 7.5 9.390625 7.566406 C 9.390625 7.636719 9.398438 7.703125 9.410156 7.769531 L 9.410156 9.589844 L 8.386719 9.589844 L 8.386719 11.894531 C 6.222656 12.710938 4.78125 14.785156 4.78125 17.113281 C 4.78125 17.277344 4.789062 17.445312 4.800781 17.609375 C 4.382812 16.8125 3.65625 16.007812 2.382812 15.644531 C 2.355469 15.636719 2.320312 15.648438 2.296875 15.675781 C 2.277344 15.699219 2.277344 15.734375 2.292969 15.765625 C 2.375 15.890625 2.765625 16.625 2.464844 18.351562 C 2.269531 19.457031 2.269531 20.34375 2.464844 21.046875 C 2.339844 20.917969 2.191406 20.8125 2.027344 20.742188 C 1.691406 20.597656 1.332031 20.589844 0.992188 20.726562 C 0.664062 20.859375 0.410156 21.113281 0.273438 21.441406 C 0 22.089844 0.308594 22.855469 0.949219 23.148438 C 1.125 23.230469 1.316406 23.269531 1.503906 23.269531 C 1.5625 23.269531 1.613281 23.265625 1.667969 23.261719 L 3.195312 23.148438 C 3.203125 23.203125 3.214844 23.253906 3.238281 23.304688 C 3.257812 23.355469 3.277344 23.402344 3.308594 23.445312 L 2.121094 24.40625 C 1.925781 24.546875 1.773438 24.738281 1.679688 24.957031 C 1.535156 25.289062 1.53125 25.652344 1.667969 25.988281 C 1.800781 26.320312 2.050781 26.574219 2.378906 26.710938 C 2.542969 26.777344 2.707031 26.808594 2.875 26.808594 C 3.378906 26.808594 3.867188 26.515625 4.089844 26.027344 C 4.191406 25.800781 4.230469 25.550781 4.199219 25.3125 L 4.089844 23.78125 C 4.191406 23.765625 4.292969 23.726562 4.378906 23.667969 L 5.34375 24.855469 C 5.484375 25.046875 5.671875 25.203125 5.894531 25.296875 C 6.0625 25.367188 6.246094 25.40625 6.425781 25.40625 C 6.492188 25.40625 6.550781 25.402344 6.613281 25.394531 L 10.34375 26.25 L 15.476562 25.9375 L 13.429688 25.054688 L 15.507812 19.21875 C 15.570312 19.066406 15.628906 18.910156 15.675781 18.753906 C 15.835938 18.226562 15.917969 17.675781 15.917969 17.121094 C 15.917969 14.785156 14.472656 12.710938 12.3125 11.894531 Z M 9.53125 8.074219 C 9.707031 8.34375 10.003906 8.527344 10.34375 8.527344 C 10.6875 8.527344 10.988281 8.347656 11.15625 8.074219 L 11.15625 9.585938 L 9.53125 9.585938 Z M 9.410156 9.714844 L 12.1875 9.714844 L 12.1875 11.832031 L 8.515625 11.832031 L 8.515625 9.714844 Z M 5.492188 19.441406 C 5.785156 19.5625 6.011719 19.792969 6.136719 20.09375 C 6.179688 20.199219 6.203125 20.308594 6.21875 20.421875 L 6.21875 20.429688 C 6.21875 20.445312 6.222656 20.46875 6.222656 20.488281 C 6.222656 20.5 6.222656 20.511719 6.222656 20.523438 C 6.222656 20.566406 6.222656 20.609375 6.21875 20.652344 C 6.21875 20.65625 6.21875 20.660156 6.21875 20.660156 C 6.21875 20.675781 6.214844 20.699219 6.207031 20.714844 C 6.203125 20.730469 6.203125 20.75 6.199219 20.765625 C 6.195312 20.785156 6.195312 20.796875 6.191406 20.8125 C 6.183594 20.84375 6.175781 20.871094 6.167969 20.902344 C 6.160156 20.910156 6.160156 20.925781 6.15625 20.933594 C 6.144531 20.964844 6.136719 20.996094 6.121094 21.03125 C 6.035156 21.230469 5.894531 21.402344 5.71875 21.53125 L 4.527344 22.488281 C 4.457031 22.414062 4.371094 22.347656 4.269531 22.300781 C 4.167969 22.257812 4.058594 22.238281 3.953125 22.238281 L 3.84375 20.707031 C 3.8125 20.484375 3.851562 20.257812 3.945312 20.054688 C 4.214844 19.46875 4.902344 19.191406 5.492188 19.441406 Z M 9.730469 18.609375 C 9.722656 18.578125 9.703125 18.554688 9.667969 18.550781 C 9.636719 18.542969 9.601562 18.558594 9.585938 18.585938 C 9.507812 18.71875 9.039062 19.40625 7.375 19.933594 C 7.203125 19.988281 7.039062 20.046875 6.886719 20.101562 L 6.492188 18.992188 C 6.445312 18.878906 6.402344 18.761719 6.367188 18.648438 C 6.246094 18.253906 6.183594 17.839844 6.183594 17.425781 C 6.183594 16.261719 6.671875 15.144531 7.535156 14.359375 C 7.773438 14.140625 8.40625 14.246094 8.785156 14.308594 C 8.855469 14.324219 8.925781 14.335938 8.984375 14.339844 C 9.300781 14.382812 9.601562 14.4375 9.898438 14.488281 C 10.988281 14.683594 12.019531 14.871094 13.183594 14.386719 C 14.027344 15.171875 14.507812 16.277344 14.507812 17.425781 C 14.507812 17.839844 14.449219 18.253906 14.324219 18.648438 C 14.289062 18.761719 14.246094 18.878906 14.199219 18.996094 L 12.621094 23.429688 L 8.074219 23.429688 L 7.886719 22.90625 L 7.859375 22.914062 C 9.101562 22.03125 10.128906 20.535156 9.730469 18.609375 Z M 7.410156 20.054688 C 8.851562 19.597656 9.425781 19.03125 9.625 18.757812 C 9.550781 19.1875 9.171875 20.539062 7.230469 21.550781 C 6.433594 21.96875 5.839844 22.414062 5.398438 22.832031 L 4.71875 22.878906 C 4.703125 22.773438 4.664062 22.671875 4.605469 22.585938 L 5.796875 21.625 C 5.988281 21.484375 6.140625 21.296875 6.234375 21.074219 C 6.25 21.039062 6.265625 21 6.277344 20.960938 C 6.28125 20.953125 6.285156 20.945312 6.285156 20.933594 C 6.292969 20.898438 6.300781 20.867188 6.3125 20.835938 C 6.316406 20.816406 6.320312 20.804688 6.320312 20.789062 C 6.324219 20.765625 6.328125 20.75 6.328125 20.726562 C 6.332031 20.699219 6.335938 20.667969 6.335938 20.644531 C 6.335938 20.628906 6.339844 20.613281 6.339844 20.601562 C 6.339844 20.570312 6.339844 20.539062 6.339844 20.511719 C 6.34375 20.492188 6.34375 20.476562 6.34375 20.460938 C 6.664062 20.3125 7.015625 20.183594 7.410156 20.054688 Z M 2.589844 18.371094 C 2.847656 16.882812 2.609375 16.113281 2.464844 15.808594 C 2.816406 16.070312 3.832031 17.03125 3.832031 19.21875 C 3.832031 19.472656 3.84375 19.71875 3.863281 19.953125 C 3.855469 19.96875 3.84375 19.984375 3.832031 20.007812 C 3.730469 20.234375 3.691406 20.484375 3.722656 20.722656 L 3.832031 22.25 C 3.78125 22.257812 3.730469 22.273438 3.679688 22.292969 C 3.628906 22.3125 3.582031 22.335938 3.539062 22.367188 L 2.6875 21.3125 C 2.402344 20.582031 2.367188 19.625 2.589844 18.371094 Z M 3.253906 22.699219 C 3.207031 22.804688 3.183594 22.910156 3.191406 23.019531 L 1.660156 23.128906 C 1.4375 23.15625 1.210938 23.121094 1.007812 23.027344 C 0.421875 22.761719 0.144531 22.066406 0.390625 21.476562 C 0.515625 21.183594 0.746094 20.957031 1.042969 20.835938 C 1.347656 20.714844 1.675781 20.71875 1.980469 20.847656 C 2.179688 20.933594 2.351562 21.074219 2.476562 21.25 L 3.441406 22.4375 C 3.363281 22.511719 3.300781 22.601562 3.253906 22.699219 Z M 3.972656 25.964844 C 3.710938 26.546875 3.015625 26.824219 2.425781 26.578125 C 2.132812 26.453125 1.90625 26.226562 1.78125 25.925781 C 1.664062 25.625 1.667969 25.296875 1.796875 24.992188 C 1.878906 24.792969 2.019531 24.621094 2.195312 24.492188 L 3.386719 23.53125 C 3.457031 23.605469 3.546875 23.671875 3.644531 23.71875 C 3.742188 23.761719 3.851562 23.78125 3.953125 23.78125 C 3.957031 23.78125 3.957031 23.78125 3.960938 23.78125 L 4.074219 25.3125 C 4.105469 25.535156 4.066406 25.761719 3.972656 25.964844 Z M 3.703125 23.601562 C 3.542969 23.535156 3.421875 23.40625 3.355469 23.25 C 3.292969 23.085938 3.296875 22.910156 3.363281 22.753906 C 3.433594 22.597656 3.5625 22.472656 3.71875 22.40625 C 3.796875 22.378906 3.875 22.359375 3.957031 22.359375 C 4.042969 22.359375 4.132812 22.378906 4.214844 22.417969 C 4.542969 22.558594 4.691406 22.941406 4.550781 23.265625 C 4.414062 23.59375 4.03125 23.742188 3.703125 23.601562 Z M 6.878906 25.183594 C 6.574219 25.304688 6.246094 25.300781 5.945312 25.171875 C 5.742188 25.085938 5.574219 24.945312 5.445312 24.769531 L 4.480469 23.578125 C 4.558594 23.503906 4.621094 23.417969 4.667969 23.316406 C 4.710938 23.214844 4.734375 23.109375 4.734375 23 L 6.265625 22.890625 C 6.484375 22.863281 6.710938 22.898438 6.917969 22.992188 C 7.5 23.257812 7.777344 23.953125 7.53125 24.539062 C 7.40625 24.835938 7.175781 25.066406 6.878906 25.183594 Z M 15.550781 18.707031 C 15.503906 18.859375 15.449219 19.007812 15.390625 19.164062 L 13.324219 24.957031 L 7.414062 24.957031 C 7.515625 24.851562 7.589844 24.726562 7.648438 24.589844 C 7.851562 24.113281 7.734375 23.578125 7.40625 23.207031 C 7.53125 23.132812 7.65625 23.054688 7.777344 22.976562 L 7.988281 23.554688 L 12.710938 23.554688 L 14.320312 19.039062 C 14.367188 18.917969 14.410156 18.800781 14.449219 18.679688 C 14.570312 18.277344 14.636719 17.847656 14.636719 17.421875 C 14.636719 16.226562 14.128906 15.074219 13.246094 14.261719 L 13.214844 14.238281 L 13.175781 14.253906 C 12.035156 14.746094 11.011719 14.5625 9.925781 14.367188 C 9.632812 14.3125 9.324219 14.257812 9.011719 14.210938 C 8.957031 14.203125 8.886719 14.195312 8.8125 14.183594 C 8.386719 14.109375 7.742188 14.003906 7.457031 14.265625 C 6.574219 15.078125 6.066406 16.230469 6.066406 17.425781 C 6.066406 17.855469 6.132812 18.28125 6.253906 18.683594 C 6.292969 18.804688 6.335938 18.925781 6.382812 19.039062 L 6.78125 20.148438 C 6.625 20.207031 6.480469 20.265625 6.339844 20.332031 C 6.324219 20.234375 6.296875 20.140625 6.265625 20.050781 C 6.132812 19.722656 5.878906 19.464844 5.550781 19.328125 C 5.484375 19.300781 5.414062 19.28125 5.347656 19.265625 L 5.332031 19.214844 C 5.277344 18.894531 5.179688 18.449219 4.980469 17.976562 C 4.933594 17.691406 4.914062 17.40625 4.914062 17.117188 C 4.914062 14.792969 6.386719 12.722656 8.585938 11.964844 L 12.128906 11.964844 C 14.324219 12.71875 15.800781 14.789062 15.800781 17.117188 C 15.789062 17.652344 15.710938 18.191406 15.550781 18.707031 Z M 18.285156 7.773438 C 18.285156 7.230469 17.796875 6.773438 17.167969 6.714844 C 17.242188 6.597656 17.285156 6.460938 17.285156 6.324219 C 17.285156 6.0625 17.144531 5.820312 16.898438 5.65625 C 16.59375 5.453125 16.195312 5.417969 15.863281 5.558594 C 15.566406 5.683594 15.34375 5.914062 15.132812 6.136719 C 15.050781 6.226562 14.964844 6.308594 14.878906 6.390625 C 14.242188 6.960938 13.285156 7.667969 12.3125 7.761719 C 12.242188 7.769531 12.1875 7.820312 12.1875 7.882812 C 12.1875 7.949219 12.238281 8.003906 12.3125 8.007812 C 13.199219 8.089844 14.183594 8.527344 14.878906 9.15625 C 14.96875 9.230469 15.050781 9.320312 15.132812 9.410156 C 15.347656 9.632812 15.566406 9.859375 15.863281 9.984375 C 16 10.042969 16.144531 10.070312 16.289062 10.070312 C 16.503906 10.070312 16.714844 10.011719 16.894531 9.890625 C 17.136719 9.730469 17.277344 9.488281 17.277344 9.226562 C 17.277344 9.089844 17.242188 8.953125 17.164062 8.835938 C 17.789062 8.769531 18.285156 8.3125 18.285156 7.773438 Z M 17.042969 8.707031 L 16.914062 8.707031 L 16.996094 8.808594 C 17.101562 8.933594 17.152344 9.074219 17.152344 9.21875 C 17.152344 9.4375 17.03125 9.640625 16.824219 9.78125 C 16.554688 9.960938 16.203125 9.992188 15.910156 9.867188 C 15.636719 9.75 15.425781 9.535156 15.21875 9.320312 C 15.132812 9.230469 15.042969 9.140625 14.953125 9.0625 C 14.242188 8.421875 13.242188 7.96875 12.335938 7.882812 C 13.335938 7.777344 14.3125 7.066406 14.953125 6.484375 C 15.042969 6.402344 15.132812 6.308594 15.21875 6.226562 C 15.425781 6.011719 15.632812 5.792969 15.910156 5.679688 C 16.207031 5.554688 16.558594 5.585938 16.824219 5.765625 C 17.03125 5.902344 17.152344 6.105469 17.152344 6.328125 C 17.152344 6.472656 17.101562 6.617188 16.996094 6.738281 L 16.914062 6.839844 L 17.042969 6.839844 C 17.660156 6.847656 18.15625 7.265625 18.15625 7.777344 C 18.15625 8.289062 17.660156 8.699219 17.042969 8.707031 Z M 16.617188 6.148438 L 16.59375 6.203125 L 16.566406 6.257812 C 16.542969 6.246094 15.960938 5.980469 15.484375 6.644531 L 15.382812 6.570312 C 15.921875 5.820312 16.613281 6.144531 16.617188 6.148438 Z M 12.796875 21.023438 L 12.679688 20.980469 C 13.292969 19.328125 13.835938 17.578125 13.222656 15.9375 L 13.34375 15.894531 C 13.96875 17.574219 13.414062 19.351562 12.796875 21.023438 Z M 4.21875 21.117188 L 4.089844 21.109375 C 4.167969 20.113281 4.625 19.878906 4.648438 19.871094 L 4.671875 19.925781 L 4.699219 19.980469 C 4.695312 19.984375 4.28125 20.199219 4.21875 21.117188 Z M 2.058594 22.621094 L 2.054688 22.75 C 1.058594 22.714844 0.804688 22.261719 0.796875 22.242188 L 0.851562 22.210938 L 0.910156 22.183594 C 0.914062 22.1875 1.144531 22.589844 2.058594 22.621094 Z M 3.707031 25.28125 L 3.820312 25.332031 C 3.40625 26.242188 2.890625 26.300781 2.871094 26.300781 L 2.855469 26.179688 C 2.863281 26.179688 3.328125 26.117188 3.707031 25.28125 Z M 7.292969 24.070312 L 7.230469 24.089844 L 7.171875 24.105469 C 7.171875 24.101562 7.035156 23.652344 6.152344 23.414062 L 6.1875 23.289062 C 7.148438 23.550781 7.289062 24.050781 7.292969 24.070312 Z M 7.292969 24.070312 " fill-opacity="1" fill-rule="nonzero"/></g><g fill="#764b36" fill-opacity="1"><g transform="translate(24.999826, 18.523419)"><g><path d="M 0.265625 -12.328125 L 1.78125 -12.328125 L 4.53125 -1.8125 L 4.625 -1.8125 L 8.046875 -12.328125 L 9.4375 -12.328125 L 12.84375 -1.8125 L 12.9375 -1.8125 L 15.703125 -12.328125 L 17.21875 -12.328125 L 13.90625 0 L 11.90625 0 L 8.78125 -9.671875 L 8.6875 -9.671875 L 5.5625 0 L 3.5625 0 Z M 0.265625 -12.328125 "/></g></g></g><g fill="#764b36" fill-opacity="1"><g transform="translate(43.355548, 18.523419)"><g><path d="M 1.375 -12.328125 L 2.90625 -12.328125 L 2.90625 0 L 1.375 0 Z M 1.375 -12.328125 "/></g></g></g><g fill="#764b36" fill-opacity="1"><g transform="translate(48.512222, 18.523419)"><g><path d="M 1.328125 -12.328125 L 3.03125 -12.328125 L 9.625 -2.4375 L 9.703125 -2.4375 L 9.703125 -12.328125 L 11.203125 -12.328125 L 11.203125 0 L 9.46875 0 L 2.890625 -9.75 L 2.8125 -9.75 L 2.8125 0 L 1.328125 0 Z M 1.328125 -12.328125 "/></g></g></g><g fill="#764b36" fill-opacity="1"><g transform="translate(61.905105, 18.523419)"><g><path d="M 1.375 -12.328125 L 2.90625 -12.328125 L 2.90625 0 L 1.375 0 Z M 1.375 -12.328125 "/></g></g></g><g fill="#764b36" fill-opacity="1"><g transform="translate(67.061779, 18.523419)"><g><path d="M 1.9375 -8.703125 C 2.644531 -9.003906 3 -9.460938 3 -10.078125 C 3 -10.359375 2.945312 -10.535156 2.84375 -10.609375 C 2.738281 -10.679688 2.59375 -10.71875 2.40625 -10.71875 C 2.101562 -10.71875 1.878906 -10.800781 1.734375 -10.96875 C 1.597656 -11.144531 1.53125 -11.34375 1.53125 -11.5625 C 1.53125 -11.875 1.625 -12.117188 1.8125 -12.296875 C 2 -12.484375 2.269531 -12.578125 2.625 -12.578125 C 3.4375 -12.578125 3.84375 -12.140625 3.84375 -11.265625 L 3.84375 -10.640625 C 3.84375 -9.929688 3.664062 -9.367188 3.3125 -8.953125 C 2.957031 -8.535156 2.5 -8.238281 1.9375 -8.0625 Z M 1.9375 -8.703125 "/></g></g></g><g fill="#764b36" fill-opacity="1"><g transform="translate(72.623229, 18.523419)"><g><path d="M 5.390625 0.140625 C 4.441406 0.140625 3.628906 -0.0507812 2.953125 -0.4375 C 2.273438 -0.832031 1.765625 -1.34375 1.421875 -1.96875 C 1.085938 -2.59375 0.921875 -3.242188 0.921875 -3.921875 L 0.921875 -4.015625 L 2.59375 -4.015625 L 2.59375 -3.921875 C 2.59375 -3.515625 2.6875 -3.101562 2.875 -2.6875 C 3.070312 -2.28125 3.378906 -1.9375 3.796875 -1.65625 C 4.222656 -1.382812 4.765625 -1.25 5.421875 -1.25 C 6.191406 -1.25 6.828125 -1.445312 7.328125 -1.84375 C 7.835938 -2.25 8.09375 -2.789062 8.09375 -3.46875 C 8.09375 -4.03125 7.90625 -4.476562 7.53125 -4.8125 C 7.164062 -5.144531 6.695312 -5.375 6.125 -5.5 L 4.328125 -5.828125 C 2.265625 -6.285156 1.234375 -7.375 1.234375 -9.09375 C 1.234375 -9.789062 1.398438 -10.40625 1.734375 -10.9375 C 2.078125 -11.46875 2.550781 -11.875 3.15625 -12.15625 C 3.757812 -12.445312 4.460938 -12.59375 5.265625 -12.59375 C 6.171875 -12.59375 6.945312 -12.410156 7.59375 -12.046875 C 8.238281 -11.679688 8.722656 -11.207031 9.046875 -10.625 C 9.378906 -10.039062 9.546875 -9.441406 9.546875 -8.828125 L 9.546875 -8.75 L 7.875 -8.75 L 7.875 -8.796875 C 7.875 -9.148438 7.785156 -9.507812 7.609375 -9.875 C 7.441406 -10.25 7.160156 -10.570312 6.765625 -10.84375 C 6.378906 -11.113281 5.863281 -11.25 5.21875 -11.25 C 4.476562 -11.25 3.882812 -11.039062 3.4375 -10.625 C 3 -10.21875 2.78125 -9.710938 2.78125 -9.109375 C 2.78125 -8.585938 2.945312 -8.160156 3.28125 -7.828125 C 3.625 -7.503906 4.09375 -7.285156 4.6875 -7.171875 L 6.296875 -6.84375 C 8.566406 -6.382812 9.703125 -5.273438 9.703125 -3.515625 C 9.703125 -2.804688 9.519531 -2.175781 9.15625 -1.625 C 8.800781 -1.070312 8.296875 -0.640625 7.640625 -0.328125 C 6.984375 -0.015625 6.234375 0.140625 5.390625 0.140625 Z M 5.390625 0.140625 "/></g></g></g><g clip-path="url(#35ea3a6a1d)"><g transform="matrix(1, 0, 0, 1, 25, 18)"><g clip-path="url(#fdd048e596)"><g fill="#764b36" fill-opacity="1"><g transform="translate(1.018509, 8.70983)"><g><path d="M 2.171875 0.0625 C 1.785156 0.0625 1.457031 -0.015625 1.1875 -0.171875 C 0.914062 -0.335938 0.710938 -0.546875 0.578125 -0.796875 C 0.441406 -1.046875 0.375 -1.304688 0.375 -1.578125 L 0.375 -1.609375 L 1.046875 -1.609375 L 1.046875 -1.578125 C 1.046875 -1.410156 1.082031 -1.242188 1.15625 -1.078125 C 1.238281 -0.910156 1.363281 -0.769531 1.53125 -0.65625 C 1.695312 -0.550781 1.914062 -0.5 2.1875 -0.5 C 2.488281 -0.5 2.738281 -0.578125 2.9375 -0.734375 C 3.144531 -0.898438 3.25 -1.117188 3.25 -1.390625 C 3.25 -1.617188 3.175781 -1.800781 3.03125 -1.9375 C 2.882812 -2.070312 2.695312 -2.160156 2.46875 -2.203125 L 1.734375 -2.34375 C 0.910156 -2.53125 0.5 -2.96875 0.5 -3.65625 C 0.5 -3.9375 0.566406 -4.179688 0.703125 -4.390625 C 0.835938 -4.609375 1.023438 -4.773438 1.265625 -4.890625 C 1.515625 -5.003906 1.796875 -5.0625 2.109375 -5.0625 C 2.472656 -5.0625 2.785156 -4.988281 3.046875 -4.84375 C 3.304688 -4.695312 3.503906 -4.503906 3.640625 -4.265625 C 3.773438 -4.035156 3.84375 -3.796875 3.84375 -3.546875 L 3.84375 -3.515625 L 3.15625 -3.515625 L 3.15625 -3.546875 C 3.15625 -3.679688 3.117188 -3.820312 3.046875 -3.96875 C 2.984375 -4.125 2.875 -4.253906 2.71875 -4.359375 C 2.5625 -4.460938 2.351562 -4.515625 2.09375 -4.515625 C 1.800781 -4.515625 1.566406 -4.429688 1.390625 -4.265625 C 1.210938 -4.109375 1.125 -3.90625 1.125 -3.65625 C 1.125 -3.445312 1.191406 -3.273438 1.328125 -3.140625 C 1.460938 -3.015625 1.644531 -2.925781 1.875 -2.875 L 2.53125 -2.75 C 3.445312 -2.570312 3.90625 -2.128906 3.90625 -1.421875 C 3.90625 -1.128906 3.832031 -0.867188 3.6875 -0.640625 C 3.539062 -0.421875 3.332031 -0.25 3.0625 -0.125 C 2.800781 0 2.503906 0.0625 2.171875 0.0625 Z M 2.171875 0.0625 "/></g></g></g><g fill="#764b36" fill-opacity="1"><g transform="translate(10.922153, 8.70983)"><g><path d="M 2.625 0.046875 C 2.15625 0.046875 1.753906 -0.0625 1.421875 -0.28125 C 1.085938 -0.5 0.832031 -0.800781 0.65625 -1.1875 C 0.476562 -1.570312 0.390625 -2.007812 0.390625 -2.5 C 0.390625 -2.988281 0.476562 -3.425781 0.65625 -3.8125 C 0.832031 -4.207031 1.085938 -4.515625 1.421875 -4.734375 C 1.753906 -4.953125 2.15625 -5.0625 2.625 -5.0625 C 3.175781 -5.0625 3.632812 -4.90625 4 -4.59375 C 4.363281 -4.28125 4.609375 -3.851562 4.734375 -3.3125 L 4.125 -3.3125 C 4.03125 -3.675781 3.847656 -3.96875 3.578125 -4.1875 C 3.316406 -4.40625 3 -4.515625 2.625 -4.515625 C 2.113281 -4.515625 1.71875 -4.332031 1.4375 -3.96875 C 1.164062 -3.601562 1.03125 -3.117188 1.03125 -2.515625 C 1.03125 -1.898438 1.164062 -1.410156 1.4375 -1.046875 C 1.71875 -0.691406 2.113281 -0.515625 2.625 -0.515625 C 2.976562 -0.515625 3.28125 -0.609375 3.53125 -0.796875 C 3.789062 -0.984375 3.972656 -1.238281 4.078125 -1.5625 L 4.6875 -1.5625 C 4.550781 -1.070312 4.304688 -0.679688 3.953125 -0.390625 C 3.597656 -0.0976562 3.15625 0.046875 2.625 0.046875 Z M 2.625 0.046875 "/></g></g></g><g fill="#764b36" fill-opacity="1"><g transform="translate(21.625743, 8.70983)"><g><path d="M 1.140625 -4.40625 L 1.140625 -2.78125 L 3.296875 -2.78125 L 3.296875 -2.28125 L 1.140625 -2.28125 L 1.140625 -0.546875 L 3.578125 -0.546875 L 3.578125 0 L 0.53125 0 L 0.53125 -4.953125 L 3.578125 -4.953125 L 3.578125 -4.40625 Z M 1.140625 -4.40625 "/></g></g></g><g fill="#764b36" fill-opacity="1"><g transform="translate(31.317015, 8.70983)"><g><path d="M 0.53125 -4.953125 L 1.21875 -4.953125 L 3.875 -0.984375 L 3.90625 -0.984375 L 3.90625 -4.953125 L 4.5 -4.953125 L 4.5 0 L 3.8125 0 L 1.15625 -3.921875 L 1.125 -3.921875 L 1.125 0 L 0.53125 0 Z M 0.53125 -4.953125 "/></g></g></g><g fill="#764b36" fill-opacity="1"><g transform="translate(42.013521, 8.70983)"><g><path d="M 3.84375 -4.40625 L 2.390625 -4.40625 L 2.390625 0 L 1.78125 0 L 1.78125 -4.40625 L 0.3125 -4.40625 L 0.3125 -4.953125 L 3.84375 -4.953125 Z M 3.84375 -4.40625 "/></g></g></g><g fill="#764b36" fill-opacity="1"><g transform="translate(51.846378, 8.70983)"><g><path d="M 2.171875 0.0625 C 1.785156 0.0625 1.457031 -0.015625 1.1875 -0.171875 C 0.914062 -0.335938 0.710938 -0.546875 0.578125 -0.796875 C 0.441406 -1.046875 0.375 -1.304688 0.375 -1.578125 L 0.375 -1.609375 L 1.046875 -1.609375 L 1.046875 -1.578125 C 1.046875 -1.410156 1.082031 -1.242188 1.15625 -1.078125 C 1.238281 -0.910156 1.363281 -0.769531 1.53125 -0.65625 C 1.695312 -0.550781 1.914062 -0.5 2.1875 -0.5 C 2.488281 -0.5 2.738281 -0.578125 2.9375 -0.734375 C 3.144531 -0.898438 3.25 -1.117188 3.25 -1.390625 C 3.25 -1.617188 3.175781 -1.800781 3.03125 -1.9375 C 2.882812 -2.070312 2.695312 -2.160156 2.46875 -2.203125 L 1.734375 -2.34375 C 0.910156 -2.53125 0.5 -2.96875 0.5 -3.65625 C 0.5 -3.9375 0.566406 -4.179688 0.703125 -4.390625 C 0.835938 -4.609375 1.023438 -4.773438 1.265625 -4.890625 C 1.515625 -5.003906 1.796875 -5.0625 2.109375 -5.0625 C 2.472656 -5.0625 2.785156 -4.988281 3.046875 -4.84375 C 3.304688 -4.695312 3.503906 -4.503906 3.640625 -4.265625 C 3.773438 -4.035156 3.84375 -3.796875 3.84375 -3.546875 L 3.84375 -3.515625 L 3.15625 -3.515625 L 3.15625 -3.546875 C 3.15625 -3.679688 3.117188 -3.820312 3.046875 -3.96875 C 2.984375 -4.125 2.875 -4.253906 2.71875 -4.359375 C 2.5625 -4.460938 2.351562 -4.515625 2.09375 -4.515625 C 1.800781 -4.515625 1.566406 -4.429688 1.390625 -4.265625 C 1.210938 -4.109375 1.125 -3.90625 1.125 -3.65625 C 1.125 -3.445312 1.191406 -3.273438 1.328125 -3.140625 C 1.460938 -3.015625 1.644531 -2.925781 1.875 -2.875 L 2.53125 -2.75 C 3.445312 -2.570312 3.90625 -2.128906 3.90625 -1.421875 C 3.90625 -1.128906 3.832031 -0.867188 3.6875 -0.640625 C 3.539062 -0.421875 3.332031 -0.25 3.0625 -0.125 C 2.800781 0 2.503906 0.0625 2.171875 0.0625 Z M 2.171875 0.0625 "/></g></g></g></g></g></g></svg>